G04 #@! TF.GenerationSoftware,KiCad,Pcbnew,(6.0.7)*
G04 #@! TF.CreationDate,2022-10-20T22:45:04-03:00*
G04 #@! TF.ProjectId,BIAS-T,42494153-2d54-42e6-9b69-6361645f7063,rev?*
G04 #@! TF.SameCoordinates,Original*
G04 #@! TF.FileFunction,Paste,Top*
G04 #@! TF.FilePolarity,Positive*
%FSLAX46Y46*%
G04 Gerber Fmt 4.6, Leading zero omitted, Abs format (unit mm)*
G04 Created by KiCad (PCBNEW (6.0.7)) date 2022-10-20 22:45:04*
%MOMM*%
%LPD*%
G01*
G04 APERTURE LIST*
%ADD10R,0.700000X1.250000*%
%ADD11R,1.701000X1.208000*%
%ADD12R,1.410000X1.350000*%
%ADD13C,2.000000*%
%ADD14C,2.500000*%
%ADD15R,1.000000X0.600000*%
%ADD16R,1.350000X1.410000*%
%ADD17R,1.208000X1.701000*%
%ADD18C,2.200000*%
%ADD19R,2.000000X1.200000*%
G04 APERTURE END LIST*
G36*
X149948000Y-90701000D02*
G01*
X149948000Y-91709000D01*
X149848000Y-91809000D01*
X149487000Y-91809000D01*
X149387000Y-91709000D01*
X149387000Y-91498000D01*
X149287000Y-91398000D01*
X148909000Y-91398000D01*
X148809000Y-91498000D01*
X148809000Y-91709000D01*
X148709000Y-91809000D01*
X148348000Y-91809000D01*
X148248000Y-91709000D01*
X148248000Y-90701000D01*
X148348000Y-90601000D01*
X149848000Y-90601000D01*
X149948000Y-90701000D01*
G37*
G36*
X148809000Y-93659000D02*
G01*
X148809000Y-93870000D01*
X148909000Y-93970000D01*
X149287000Y-93970000D01*
X149387000Y-93870000D01*
X149387000Y-93659000D01*
X149487000Y-93559000D01*
X149848000Y-93559000D01*
X149948000Y-93659000D01*
X149948000Y-94667000D01*
X149848000Y-94767000D01*
X148348000Y-94767000D01*
X148248000Y-94667000D01*
X148248000Y-93659000D01*
X148348000Y-93559000D01*
X148709000Y-93559000D01*
X148809000Y-93659000D01*
G37*
G36*
X149670000Y-103861000D02*
G01*
X149675000Y-104271000D01*
X149225000Y-104271000D01*
X149225000Y-104721000D01*
X149665000Y-104721000D01*
X149670000Y-105141000D01*
X149620000Y-105191000D01*
X148470000Y-105191000D01*
X148420000Y-105141000D01*
X148420000Y-103861000D01*
X148470000Y-103811000D01*
X149620000Y-103811000D01*
X149670000Y-103861000D01*
G37*
G36*
X151820000Y-103861000D02*
G01*
X151820000Y-105141000D01*
X151770000Y-105191000D01*
X150620000Y-105191000D01*
X150570000Y-105141000D01*
X150570000Y-104721000D01*
X151015000Y-104721000D01*
X151015000Y-104271000D01*
X150575000Y-104271000D01*
X150570000Y-103861000D01*
X150620000Y-103811000D01*
X151770000Y-103811000D01*
X151820000Y-103861000D01*
G37*
G36*
X172343000Y-96501000D02*
G01*
X172793000Y-96501000D01*
X172793000Y-96061000D01*
X173213000Y-96056000D01*
X173263000Y-96106000D01*
X173263000Y-97256000D01*
X173213000Y-97306000D01*
X171933000Y-97306000D01*
X171883000Y-97256000D01*
X171883000Y-96106000D01*
X171933000Y-96056000D01*
X172343000Y-96051000D01*
X172343000Y-96501000D01*
G37*
G36*
X173263000Y-93956000D02*
G01*
X173263000Y-95106000D01*
X173213000Y-95156000D01*
X172793000Y-95156000D01*
X172793000Y-94711000D01*
X172343000Y-94711000D01*
X172343000Y-95151000D01*
X171933000Y-95156000D01*
X171883000Y-95106000D01*
X171883000Y-93956000D01*
X171933000Y-93906000D01*
X173213000Y-93906000D01*
X173263000Y-93956000D01*
G37*
G36*
X154528000Y-96278000D02*
G01*
X154528000Y-96639000D01*
X154428000Y-96739000D01*
X154217000Y-96739000D01*
X154117000Y-96839000D01*
X154117000Y-97217000D01*
X154217000Y-97317000D01*
X154428000Y-97317000D01*
X154528000Y-97417000D01*
X154528000Y-97778000D01*
X154428000Y-97878000D01*
X153420000Y-97878000D01*
X153320000Y-97778000D01*
X153320000Y-96278000D01*
X153420000Y-96178000D01*
X154428000Y-96178000D01*
X154528000Y-96278000D01*
G37*
G36*
X157486000Y-96278000D02*
G01*
X157486000Y-97778000D01*
X157386000Y-97878000D01*
X156378000Y-97878000D01*
X156278000Y-97778000D01*
X156278000Y-97417000D01*
X156378000Y-97317000D01*
X156589000Y-97317000D01*
X156689000Y-97217000D01*
X156689000Y-96839000D01*
X156589000Y-96739000D01*
X156378000Y-96739000D01*
X156278000Y-96639000D01*
X156278000Y-96278000D01*
X156378000Y-96178000D01*
X157386000Y-96178000D01*
X157486000Y-96278000D01*
G37*
G36*
X154528000Y-98945000D02*
G01*
X154528000Y-99306000D01*
X154428000Y-99406000D01*
X154217000Y-99406000D01*
X154117000Y-99506000D01*
X154117000Y-99884000D01*
X154217000Y-99984000D01*
X154428000Y-99984000D01*
X154528000Y-100084000D01*
X154528000Y-100445000D01*
X154428000Y-100545000D01*
X153420000Y-100545000D01*
X153320000Y-100445000D01*
X153320000Y-98945000D01*
X153420000Y-98845000D01*
X154428000Y-98845000D01*
X154528000Y-98945000D01*
G37*
G36*
X157486000Y-98945000D02*
G01*
X157486000Y-100445000D01*
X157386000Y-100545000D01*
X156378000Y-100545000D01*
X156278000Y-100445000D01*
X156278000Y-100084000D01*
X156378000Y-99984000D01*
X156589000Y-99984000D01*
X156689000Y-99884000D01*
X156689000Y-99506000D01*
X156589000Y-99406000D01*
X156378000Y-99406000D01*
X156278000Y-99306000D01*
X156278000Y-98945000D01*
X156378000Y-98845000D01*
X157386000Y-98845000D01*
X157486000Y-98945000D01*
G37*
D10*
X146619000Y-97933000D03*
X144719000Y-97933000D03*
X145669000Y-99933000D03*
D11*
X149098000Y-91205000D03*
X149098000Y-94163000D03*
D12*
X149065000Y-104521000D03*
X151125000Y-104521000D03*
D13*
X130216500Y-104521000D03*
D14*
X127666500Y-101971000D03*
X127666500Y-107071000D03*
X132766500Y-107071000D03*
X132766500Y-101971000D03*
D15*
X168559000Y-98867000D03*
X168559000Y-97917000D03*
X168559000Y-96967000D03*
X165959000Y-96967000D03*
X165959000Y-98867000D03*
D16*
X172593000Y-96661000D03*
X172593000Y-94601000D03*
D17*
X156882000Y-97028000D03*
X153924000Y-97028000D03*
D18*
X140970000Y-91205000D03*
X135890000Y-91205000D03*
D17*
X153924000Y-99695000D03*
X156882000Y-99695000D03*
D13*
X170011500Y-104521000D03*
D14*
X172561500Y-107071000D03*
X172561500Y-101971000D03*
X167461500Y-101971000D03*
X167461500Y-107071000D03*
D19*
X138430000Y-101397000D03*
X138430000Y-104521000D03*
X161671000Y-101397000D03*
X161671000Y-104521000D03*
D18*
X164211000Y-91205000D03*
X159131000Y-91205000D03*
M02*
