G04 #@! TF.GenerationSoftware,KiCad,Pcbnew,(6.0.7)*
G04 #@! TF.CreationDate,2022-10-20T22:45:04-03:00*
G04 #@! TF.ProjectId,BIAS-T,42494153-2d54-42e6-9b69-6361645f7063,rev?*
G04 #@! TF.SameCoordinates,Original*
G04 #@! TF.FileFunction,Legend,Top*
G04 #@! TF.FilePolarity,Positive*
%FSLAX46Y46*%
G04 Gerber Fmt 4.6, Leading zero omitted, Abs format (unit mm)*
G04 Created by KiCad (PCBNEW (6.0.7)) date 2022-10-20 22:45:04*
%MOMM*%
%LPD*%
G01*
G04 APERTURE LIST*
%ADD10C,0.300000*%
%ADD11C,0.122000*%
%ADD12C,0.152000*%
%ADD13C,0.254000*%
%ADD14R,0.700000X1.250000*%
%ADD15R,1.701000X1.208000*%
%ADD16R,1.410000X1.350000*%
%ADD17C,2.000000*%
%ADD18C,2.500000*%
%ADD19R,1.000000X0.600000*%
%ADD20R,1.350000X1.410000*%
%ADD21R,1.208000X1.701000*%
%ADD22C,2.200000*%
%ADD23R,2.000000X1.200000*%
G04 APERTURE END LIST*
D10*
D11*
X145634680Y-96702500D02*
X145553061Y-96653500D01*
X145471442Y-96555500D01*
X145349014Y-96408500D01*
X145267395Y-96359500D01*
X145185776Y-96359500D01*
X145226585Y-96604500D02*
X145144966Y-96555500D01*
X145063347Y-96457500D01*
X145022538Y-96261500D01*
X145022538Y-95918500D01*
X145063347Y-95722500D01*
X145144966Y-95624500D01*
X145226585Y-95575500D01*
X145389823Y-95575500D01*
X145471442Y-95624500D01*
X145553061Y-95722500D01*
X145593871Y-95918500D01*
X145593871Y-96261500D01*
X145553061Y-96457500D01*
X145471442Y-96555500D01*
X145389823Y-96604500D01*
X145226585Y-96604500D01*
X146328442Y-95918500D02*
X146328442Y-96604500D01*
X146124395Y-95526500D02*
X145920347Y-96261500D01*
X146450871Y-96261500D01*
D10*
D11*
X151722500Y-92681728D02*
X151232500Y-92967395D01*
X151722500Y-93171442D02*
X150693500Y-93171442D01*
X150693500Y-92844966D01*
X150742500Y-92763347D01*
X150791500Y-92722538D01*
X150889500Y-92681728D01*
X151036500Y-92681728D01*
X151134500Y-92722538D01*
X151183500Y-92763347D01*
X151232500Y-92844966D01*
X151232500Y-93171442D01*
X150693500Y-91947157D02*
X150693500Y-92110395D01*
X150742500Y-92192014D01*
X150791500Y-92232823D01*
X150938500Y-92314442D01*
X151134500Y-92355252D01*
X151526500Y-92355252D01*
X151624500Y-92314442D01*
X151673500Y-92273633D01*
X151722500Y-92192014D01*
X151722500Y-92028776D01*
X151673500Y-91947157D01*
X151624500Y-91906347D01*
X151526500Y-91865538D01*
X151281500Y-91865538D01*
X151183500Y-91906347D01*
X151134500Y-91947157D01*
X151085500Y-92028776D01*
X151085500Y-92192014D01*
X151134500Y-92273633D01*
X151183500Y-92314442D01*
X151281500Y-92355252D01*
X150125061Y-103110500D02*
X150084252Y-103159500D01*
X149961823Y-103208500D01*
X149880204Y-103208500D01*
X149757776Y-103159500D01*
X149676157Y-103061500D01*
X149635347Y-102963500D01*
X149594538Y-102767500D01*
X149594538Y-102620500D01*
X149635347Y-102424500D01*
X149676157Y-102326500D01*
X149757776Y-102228500D01*
X149880204Y-102179500D01*
X149961823Y-102179500D01*
X150084252Y-102228500D01*
X150125061Y-102277500D01*
X150941252Y-103208500D02*
X150451538Y-103208500D01*
X150696395Y-103208500D02*
X150696395Y-102179500D01*
X150614776Y-102326500D01*
X150533157Y-102424500D01*
X150451538Y-102473500D01*
X129932061Y-109304500D02*
X129646395Y-108814500D01*
X129442347Y-109304500D02*
X129442347Y-108275500D01*
X129768823Y-108275500D01*
X129850442Y-108324500D01*
X129891252Y-108373500D01*
X129932061Y-108471500D01*
X129932061Y-108618500D01*
X129891252Y-108716500D01*
X129850442Y-108765500D01*
X129768823Y-108814500D01*
X129442347Y-108814500D01*
X130585014Y-108765500D02*
X130299347Y-108765500D01*
X130299347Y-109304500D02*
X130299347Y-108275500D01*
X130707442Y-108275500D01*
X131482823Y-109304500D02*
X130993109Y-109304500D01*
X131237966Y-109304500D02*
X131237966Y-108275500D01*
X131156347Y-108422500D01*
X131074728Y-108520500D01*
X130993109Y-108569500D01*
X167478347Y-95384500D02*
X167478347Y-96217500D01*
X167519157Y-96315500D01*
X167559966Y-96364500D01*
X167641585Y-96413500D01*
X167804823Y-96413500D01*
X167886442Y-96364500D01*
X167927252Y-96315500D01*
X167968061Y-96217500D01*
X167968061Y-95384500D01*
X168825061Y-96413500D02*
X168335347Y-96413500D01*
X168580204Y-96413500D02*
X168580204Y-95384500D01*
X168498585Y-95531500D01*
X168416966Y-95629500D01*
X168335347Y-95678500D01*
X170928500Y-95619938D02*
X170977500Y-95660747D01*
X171026500Y-95783176D01*
X171026500Y-95864795D01*
X170977500Y-95987223D01*
X170879500Y-96068842D01*
X170781500Y-96109652D01*
X170585500Y-96150461D01*
X170438500Y-96150461D01*
X170242500Y-96109652D01*
X170144500Y-96068842D01*
X170046500Y-95987223D01*
X169997500Y-95864795D01*
X169997500Y-95783176D01*
X170046500Y-95660747D01*
X170095500Y-95619938D01*
X170095500Y-95293461D02*
X170046500Y-95252652D01*
X169997500Y-95171033D01*
X169997500Y-94966985D01*
X170046500Y-94885366D01*
X170095500Y-94844557D01*
X170193500Y-94803747D01*
X170291500Y-94803747D01*
X170438500Y-94844557D01*
X171026500Y-95334271D01*
X171026500Y-94803747D01*
D10*
D11*
X152820500Y-97197728D02*
X152330500Y-97483395D01*
X152820500Y-97687442D02*
X151791500Y-97687442D01*
X151791500Y-97360966D01*
X151840500Y-97279347D01*
X151889500Y-97238538D01*
X151987500Y-97197728D01*
X152134500Y-97197728D01*
X152232500Y-97238538D01*
X152281500Y-97279347D01*
X152330500Y-97360966D01*
X152330500Y-97687442D01*
X151791500Y-96912061D02*
X151791500Y-96340728D01*
X152820500Y-96708014D01*
D10*
D11*
X145020500Y-92272538D02*
X145069500Y-92313347D01*
X145118500Y-92435776D01*
X145118500Y-92517395D01*
X145069500Y-92639823D01*
X144971500Y-92721442D01*
X144873500Y-92762252D01*
X144677500Y-92803061D01*
X144530500Y-92803061D01*
X144334500Y-92762252D01*
X144236500Y-92721442D01*
X144138500Y-92639823D01*
X144089500Y-92517395D01*
X144089500Y-92435776D01*
X144138500Y-92313347D01*
X144187500Y-92272538D01*
X145118500Y-91905252D02*
X144089500Y-91905252D01*
X145118500Y-91415538D01*
X144089500Y-91415538D01*
X145118500Y-90558538D02*
X145118500Y-91048252D01*
X145118500Y-90803395D02*
X144089500Y-90803395D01*
X144236500Y-90885014D01*
X144334500Y-90966633D01*
X144383500Y-91048252D01*
X152693500Y-100118728D02*
X152203500Y-100404395D01*
X152693500Y-100608442D02*
X151664500Y-100608442D01*
X151664500Y-100281966D01*
X151713500Y-100200347D01*
X151762500Y-100159538D01*
X151860500Y-100118728D01*
X152007500Y-100118728D01*
X152105500Y-100159538D01*
X152154500Y-100200347D01*
X152203500Y-100281966D01*
X152203500Y-100608442D01*
X152693500Y-99302538D02*
X152693500Y-99792252D01*
X152693500Y-99547395D02*
X151664500Y-99547395D01*
X151811500Y-99629014D01*
X151909500Y-99710633D01*
X151958500Y-99792252D01*
X169529700Y-109177500D02*
X169244033Y-108687500D01*
X169039985Y-109177500D02*
X169039985Y-108148500D01*
X169366461Y-108148500D01*
X169448080Y-108197500D01*
X169488890Y-108246500D01*
X169529700Y-108344500D01*
X169529700Y-108491500D01*
X169488890Y-108589500D01*
X169448080Y-108638500D01*
X169366461Y-108687500D01*
X169039985Y-108687500D01*
X170182652Y-108638500D02*
X169896985Y-108638500D01*
X169896985Y-109177500D02*
X169896985Y-108148500D01*
X170305080Y-108148500D01*
X170590747Y-108246500D02*
X170631557Y-108197500D01*
X170713176Y-108148500D01*
X170917223Y-108148500D01*
X170998842Y-108197500D01*
X171039652Y-108246500D01*
X171080461Y-108344500D01*
X171080461Y-108442500D01*
X171039652Y-108589500D01*
X170549938Y-109177500D01*
X171080461Y-109177500D01*
D10*
D11*
X141435500Y-103466109D02*
X141435500Y-103874204D01*
X140406500Y-103874204D01*
X140504500Y-103221252D02*
X140455500Y-103180442D01*
X140406500Y-103098823D01*
X140406500Y-102894776D01*
X140455500Y-102813157D01*
X140504500Y-102772347D01*
X140602500Y-102731538D01*
X140700500Y-102731538D01*
X140847500Y-102772347D01*
X141435500Y-103262061D01*
X141435500Y-102731538D01*
X164676500Y-103212109D02*
X164676500Y-103620204D01*
X163647500Y-103620204D01*
X164676500Y-102477538D02*
X164676500Y-102967252D01*
X164676500Y-102722395D02*
X163647500Y-102722395D01*
X163794500Y-102804014D01*
X163892500Y-102885633D01*
X163941500Y-102967252D01*
X168261500Y-92507538D02*
X168310500Y-92548347D01*
X168359500Y-92670776D01*
X168359500Y-92752395D01*
X168310500Y-92874823D01*
X168212500Y-92956442D01*
X168114500Y-92997252D01*
X167918500Y-93038061D01*
X167771500Y-93038061D01*
X167575500Y-92997252D01*
X167477500Y-92956442D01*
X167379500Y-92874823D01*
X167330500Y-92752395D01*
X167330500Y-92670776D01*
X167379500Y-92548347D01*
X167428500Y-92507538D01*
X168359500Y-92140252D02*
X167330500Y-92140252D01*
X168359500Y-91650538D01*
X167330500Y-91650538D01*
X167428500Y-91283252D02*
X167379500Y-91242442D01*
X167330500Y-91160823D01*
X167330500Y-90956776D01*
X167379500Y-90875157D01*
X167428500Y-90834347D01*
X167526500Y-90793538D01*
X167624500Y-90793538D01*
X167771500Y-90834347D01*
X168359500Y-91324061D01*
X168359500Y-90793538D01*
G36*
X138594144Y-97593828D02*
G01*
X138815804Y-97596045D01*
X138970415Y-97601200D01*
X139069972Y-97610488D01*
X139126470Y-97625105D01*
X139151902Y-97646245D01*
X139158264Y-97675104D01*
X139158316Y-97679524D01*
X139124849Y-97765066D01*
X139086313Y-97793323D01*
X139016907Y-97802594D01*
X138875988Y-97809529D01*
X138682818Y-97814158D01*
X138456662Y-97816511D01*
X138216783Y-97816620D01*
X137982444Y-97814514D01*
X137772910Y-97810224D01*
X137607442Y-97803780D01*
X137505306Y-97795212D01*
X137485466Y-97790807D01*
X137437738Y-97731655D01*
X137428567Y-97680601D01*
X137433073Y-97650276D01*
X137454595Y-97627923D01*
X137505138Y-97612332D01*
X137596708Y-97602292D01*
X137741309Y-97596591D01*
X137950947Y-97594018D01*
X138237628Y-97593363D01*
X138293441Y-97593355D01*
X138594144Y-97593828D01*
G37*
G36*
X141542418Y-95769760D02*
G01*
X141621433Y-95892968D01*
X141658766Y-96036200D01*
X141696337Y-96161631D01*
X141762023Y-96214679D01*
X141776392Y-96217666D01*
X141944288Y-96249275D01*
X142045727Y-96288088D01*
X142105222Y-96344895D01*
X142119411Y-96368647D01*
X142135110Y-96475738D01*
X142073349Y-96567345D01*
X141947693Y-96629428D01*
X141851059Y-96646361D01*
X141738910Y-96665070D01*
X141685601Y-96715295D01*
X141659813Y-96821066D01*
X141633124Y-96944913D01*
X141602625Y-97032140D01*
X141599698Y-97037284D01*
X141533084Y-97078151D01*
X141428894Y-97091183D01*
X141328912Y-97076580D01*
X141275308Y-97035738D01*
X141258372Y-96953645D01*
X141243544Y-96830588D01*
X141242597Y-96819520D01*
X141228242Y-96720657D01*
X141189126Y-96670339D01*
X141098896Y-96646467D01*
X141025482Y-96637441D01*
X140891886Y-96613700D01*
X140818986Y-96569239D01*
X140777634Y-96489267D01*
X140759352Y-96374587D01*
X140806608Y-96297833D01*
X140928957Y-96249420D01*
X141035099Y-96230944D01*
X141157096Y-96209482D01*
X141215755Y-96170544D01*
X141238278Y-96087148D01*
X141244234Y-96023502D01*
X141277699Y-95848175D01*
X141345687Y-95751886D01*
X141434301Y-95727047D01*
X141542418Y-95769760D01*
G37*
G36*
X139060888Y-95367492D02*
G01*
X139053563Y-95486714D01*
X138985743Y-95652224D01*
X138885197Y-95818086D01*
X138795026Y-95957214D01*
X138729906Y-96069788D01*
X138703207Y-96132597D01*
X138703119Y-96134226D01*
X138742530Y-96168478D01*
X138834104Y-96182244D01*
X138950999Y-96206128D01*
X139025087Y-96254537D01*
X139040839Y-96289455D01*
X139029330Y-96336725D01*
X138982540Y-96406666D01*
X138892449Y-96509597D01*
X138751036Y-96655839D01*
X138582845Y-96823533D01*
X138380149Y-97022226D01*
X138230806Y-97163015D01*
X138124819Y-97253380D01*
X138052192Y-97300802D01*
X138002929Y-97312760D01*
X137967033Y-97296735D01*
X137959630Y-97289890D01*
X137931304Y-97225825D01*
X137951092Y-97127712D01*
X138023273Y-96983809D01*
X138135647Y-96806810D01*
X138245023Y-96631965D01*
X138293803Y-96523623D01*
X138283586Y-96481080D01*
X138196992Y-96458117D01*
X138099982Y-96435537D01*
X138001193Y-96387906D01*
X137974803Y-96330059D01*
X138005571Y-96268404D01*
X138088790Y-96161984D01*
X138210835Y-96024371D01*
X138358078Y-95869135D01*
X138516894Y-95709845D01*
X138673657Y-95560073D01*
X138814740Y-95433388D01*
X138926518Y-95343361D01*
X138995363Y-95303561D01*
X139005636Y-95303456D01*
X139060888Y-95367492D01*
G37*
G36*
X135869581Y-96366883D02*
G01*
X136076584Y-96377074D01*
X136214779Y-96398660D01*
X136295240Y-96435404D01*
X136329042Y-96491072D01*
X136327260Y-96569426D01*
X136317549Y-96614090D01*
X136288839Y-96728480D01*
X135585752Y-96728480D01*
X135316985Y-96727675D01*
X135125021Y-96724147D01*
X134995631Y-96716224D01*
X134914585Y-96702239D01*
X134867654Y-96680519D01*
X134840608Y-96649396D01*
X134835544Y-96640433D01*
X134795192Y-96552574D01*
X134805747Y-96495986D01*
X134859954Y-96435854D01*
X134905058Y-96406613D01*
X134981653Y-96386269D01*
X135104166Y-96373395D01*
X135287022Y-96366564D01*
X135544645Y-96364346D01*
X135582696Y-96364323D01*
X135869581Y-96366883D01*
G37*
D12*
X144143000Y-98207000D02*
X144143000Y-99659000D01*
X147195000Y-99659000D02*
X146164000Y-99659000D01*
X145214000Y-98207000D02*
X146124000Y-98207000D01*
X147195000Y-98207000D02*
X147195000Y-99659000D01*
X144143000Y-99659000D02*
X145174000Y-99659000D01*
G36*
X161155094Y-105997267D02*
G01*
X161267065Y-106012312D01*
X161365072Y-106047271D01*
X161479829Y-106110231D01*
X161510956Y-106128998D01*
X161629480Y-106207655D01*
X161723321Y-106282076D01*
X161770648Y-106334094D01*
X161787198Y-106401545D01*
X161800022Y-106523335D01*
X161807254Y-106678345D01*
X161808190Y-106758689D01*
X161809869Y-106927972D01*
X161817291Y-107039691D01*
X161834036Y-107111733D01*
X161863683Y-107161984D01*
X161895541Y-107195196D01*
X162007791Y-107256334D01*
X162152019Y-107278203D01*
X162293819Y-107257470D01*
X162339052Y-107238189D01*
X162369799Y-107215234D01*
X162390514Y-107176407D01*
X162403138Y-107108304D01*
X162409614Y-106997523D01*
X162411886Y-106830659D01*
X162412053Y-106734529D01*
X162415539Y-106509131D01*
X162428752Y-106348549D01*
X162455827Y-106242323D01*
X162500898Y-106179993D01*
X162568099Y-106151099D01*
X162645060Y-106145015D01*
X162722758Y-106152617D01*
X162779948Y-106181908D01*
X162819667Y-106242613D01*
X162844952Y-106344458D01*
X162858840Y-106497168D01*
X162864370Y-106710468D01*
X162864951Y-106849060D01*
X162864416Y-107078013D01*
X162859224Y-107245205D01*
X162843993Y-107364353D01*
X162813343Y-107449173D01*
X162761893Y-107513385D01*
X162684261Y-107570704D01*
X162575066Y-107634849D01*
X162551426Y-107648303D01*
X162462990Y-107690333D01*
X162364449Y-107715417D01*
X162233249Y-107727398D01*
X162071023Y-107730156D01*
X161734307Y-107730156D01*
X161544800Y-107538644D01*
X161355293Y-107347131D01*
X161355293Y-106562109D01*
X161243942Y-106504528D01*
X161084580Y-106452355D01*
X160934006Y-106457384D01*
X160812313Y-106518280D01*
X160795750Y-106534297D01*
X160761962Y-106575894D01*
X160738942Y-106625445D01*
X160724649Y-106697345D01*
X160717044Y-106805989D01*
X160714085Y-106965774D01*
X160713688Y-107113440D01*
X160712470Y-107319179D01*
X160707696Y-107462948D01*
X160697685Y-107558237D01*
X160680760Y-107618535D01*
X160655238Y-107657333D01*
X160644668Y-107667694D01*
X160537234Y-107721945D01*
X160419211Y-107718901D01*
X160323252Y-107661136D01*
X160298835Y-107623250D01*
X160281553Y-107564305D01*
X160270267Y-107472346D01*
X160263835Y-107335415D01*
X160261116Y-107141557D01*
X160260790Y-107006406D01*
X160260790Y-106420695D01*
X160708084Y-105994049D01*
X160998445Y-105994049D01*
X161155094Y-105997267D01*
G37*
G36*
X161917647Y-107919041D02*
G01*
X162226696Y-107919788D01*
X162474612Y-107921419D01*
X162668570Y-107924252D01*
X162815744Y-107928602D01*
X162923309Y-107934786D01*
X162998440Y-107943122D01*
X163048311Y-107953925D01*
X163080098Y-107967513D01*
X163100974Y-107984201D01*
X163104421Y-107987882D01*
X163158672Y-108095317D01*
X163155628Y-108213339D01*
X163097863Y-108309299D01*
X163074202Y-108325121D01*
X163036830Y-108338055D01*
X162978616Y-108348386D01*
X162892427Y-108356399D01*
X162771132Y-108362378D01*
X162607597Y-108366608D01*
X162394692Y-108369375D01*
X162125282Y-108370962D01*
X161792237Y-108371655D01*
X161533733Y-108371760D01*
X160038622Y-108371760D01*
X159979870Y-108287880D01*
X159926713Y-108173944D01*
X159942606Y-108066489D01*
X159979870Y-108002744D01*
X160038622Y-107918863D01*
X161540290Y-107918863D01*
X161917647Y-107919041D01*
G37*
X150177000Y-94995000D02*
X150177000Y-93635000D01*
X148019000Y-94995000D02*
X150177000Y-94995000D01*
X148019000Y-93635000D02*
X148019000Y-94995000D01*
X148019000Y-90373000D02*
X150177000Y-90373000D01*
X148019000Y-91733000D02*
X148019000Y-90373000D01*
X150177000Y-90373000D02*
X150177000Y-91733000D01*
X148131000Y-105272000D02*
X148131000Y-103770000D01*
X152059000Y-105272000D02*
X152059000Y-103770000D01*
X151906000Y-103617000D02*
X150496000Y-103617000D01*
X150496000Y-105425000D02*
X151906000Y-105425000D01*
X149694000Y-105425000D02*
X148284000Y-105425000D01*
X148284000Y-103617000D02*
X149694000Y-103617000D01*
X148131000Y-105272000D02*
G75*
G03*
X148284000Y-105425000I153001J1D01*
G01*
X152059000Y-103770000D02*
G75*
G03*
X151906000Y-103617000I-153000J0D01*
G01*
X148284000Y-103617000D02*
G75*
G03*
X148131000Y-103770000I1J-153001D01*
G01*
X151906000Y-105425000D02*
G75*
G03*
X152059000Y-105272000I0J153000D01*
G01*
D13*
X116980500Y-107221000D02*
X116337500Y-101821000D01*
X116291500Y-101821000D02*
X116291500Y-107221000D01*
X119647500Y-101821000D02*
X119647500Y-107221000D01*
X118323500Y-107221000D02*
X117679500Y-101821000D01*
X133264500Y-105676000D02*
X133264500Y-103366000D01*
X116291500Y-107221000D02*
X115647500Y-101821000D01*
X121625500Y-107221000D02*
X120981500Y-101821000D01*
X117651500Y-101821000D02*
X117651500Y-107221000D01*
X122260500Y-101821000D02*
X122260500Y-107221000D01*
X120300500Y-101821000D02*
X120300500Y-107221000D01*
X122913500Y-107221000D02*
X122269500Y-101821000D01*
X114268500Y-101821000D02*
X126192500Y-101821000D01*
X120972500Y-107221000D02*
X120328500Y-101821000D01*
X114268500Y-107221000D02*
X126192500Y-107221000D01*
X118976500Y-107221000D02*
X118332500Y-101821000D01*
X124255500Y-101821000D02*
X124255500Y-107221000D01*
X117651500Y-107221000D02*
X117008500Y-101821000D01*
X114268500Y-101821000D02*
X114268500Y-107221000D01*
X122913500Y-101821000D02*
X122913500Y-107221000D01*
X123548500Y-107221000D02*
X122904500Y-101821000D01*
X121625500Y-101821000D02*
X121625500Y-107221000D01*
X115619500Y-101821000D02*
X115619500Y-107221000D01*
X116980500Y-101821000D02*
X116980500Y-107221000D01*
X120972500Y-101821000D02*
X120972500Y-107221000D01*
X122260500Y-107221000D02*
X121616500Y-101821000D01*
X131371500Y-101473000D02*
X129061500Y-101473000D01*
X119647500Y-107221000D02*
X119004500Y-101821000D01*
X120300500Y-107221000D02*
X119657500Y-101821000D01*
X129061500Y-107569000D02*
X131359500Y-107569000D01*
X124255500Y-107221000D02*
X123612500Y-101821000D01*
X118323500Y-101821000D02*
X118323500Y-107221000D01*
X127295500Y-103405000D02*
X127295500Y-105637000D01*
X123548500Y-101821000D02*
X123548500Y-107221000D01*
X118976500Y-101821000D02*
X118976500Y-107221000D01*
X166359000Y-98317000D02*
X166359000Y-97517000D01*
X166359000Y-96367000D02*
X168159000Y-96367000D01*
X166359000Y-99467000D02*
X168159000Y-99467000D01*
X168910000Y-99568000D02*
G75*
G03*
X168910000Y-99568000I-127000J0D01*
G01*
D12*
X171689000Y-93820000D02*
X171689000Y-95230000D01*
X173344000Y-93667000D02*
X171842000Y-93667000D01*
X173497000Y-96032000D02*
X173497000Y-97442000D01*
X173497000Y-95230000D02*
X173497000Y-93820000D01*
X173344000Y-97595000D02*
X171842000Y-97595000D01*
X171689000Y-97442000D02*
X171689000Y-96032000D01*
X173344000Y-97595000D02*
G75*
G03*
X173497000Y-97442000I-1J153001D01*
G01*
X171842000Y-93667000D02*
G75*
G03*
X171689000Y-93820000I0J-153000D01*
G01*
X171689000Y-97442000D02*
G75*
G03*
X171842000Y-97595000I153001J1D01*
G01*
X173497000Y-93820000D02*
G75*
G03*
X173344000Y-93667000I-153000J0D01*
G01*
G36*
X159613140Y-95821747D02*
G01*
X159685371Y-95835146D01*
X159735193Y-95858619D01*
X159777647Y-95894166D01*
X159796785Y-95913063D01*
X159881829Y-96024103D01*
X159891027Y-96121310D01*
X159825504Y-96220836D01*
X159818659Y-96227797D01*
X159779269Y-96260361D01*
X159727670Y-96283091D01*
X159649534Y-96297722D01*
X159530531Y-96305992D01*
X159356333Y-96309637D01*
X159137195Y-96310399D01*
X158900162Y-96309457D01*
X158731392Y-96305475D01*
X158616557Y-96296716D01*
X158541328Y-96281442D01*
X158491377Y-96257918D01*
X158455732Y-96227797D01*
X158385442Y-96129978D01*
X158387845Y-96034914D01*
X158451988Y-95932942D01*
X158487600Y-95894208D01*
X158530922Y-95866895D01*
X158596497Y-95848557D01*
X158698864Y-95836748D01*
X158852565Y-95829022D01*
X159072142Y-95822935D01*
X159111578Y-95822014D01*
X159341285Y-95817180D01*
X159503459Y-95816425D01*
X159613140Y-95821747D01*
G37*
G36*
X161553293Y-95525683D02*
G01*
X161817366Y-95527163D01*
X162010077Y-95537016D01*
X162142668Y-95563358D01*
X162226378Y-95614309D01*
X162272449Y-95697986D01*
X162292119Y-95822508D01*
X162296630Y-95995991D01*
X162296708Y-96062594D01*
X162296708Y-96434301D01*
X162711593Y-96434301D01*
X162903189Y-96435779D01*
X163031312Y-96442713D01*
X163115074Y-96458858D01*
X163173587Y-96487966D01*
X163225962Y-96533789D01*
X163227853Y-96535676D01*
X163311247Y-96646102D01*
X163318035Y-96743870D01*
X163249168Y-96844752D01*
X163246626Y-96847309D01*
X163207237Y-96879874D01*
X163155638Y-96902603D01*
X163077501Y-96917234D01*
X162958498Y-96925504D01*
X162784300Y-96929149D01*
X162565163Y-96929911D01*
X162296928Y-96928720D01*
X162100208Y-96919753D01*
X161963914Y-96894920D01*
X161876959Y-96846130D01*
X161828257Y-96765293D01*
X161806721Y-96644318D01*
X161801262Y-96475113D01*
X161801098Y-96372350D01*
X161801098Y-95979992D01*
X161264187Y-95979992D01*
X161264187Y-96372350D01*
X161261872Y-96562354D01*
X161252733Y-96688736D01*
X161233485Y-96770399D01*
X161200838Y-96826247D01*
X161181586Y-96847309D01*
X161099819Y-96908571D01*
X161037033Y-96929911D01*
X160963746Y-96902570D01*
X160892480Y-96847309D01*
X160858279Y-96805454D01*
X160834994Y-96750330D01*
X160820574Y-96666577D01*
X160812974Y-96538835D01*
X160810144Y-96351745D01*
X160809878Y-96227797D01*
X160810494Y-95978303D01*
X160819819Y-95796195D01*
X160849072Y-95670878D01*
X160909471Y-95591758D01*
X161012233Y-95548240D01*
X161168576Y-95529729D01*
X161389718Y-95525631D01*
X161553293Y-95525683D01*
G37*
G36*
X164773708Y-95398413D02*
G01*
X164863643Y-95498745D01*
X164920320Y-95641274D01*
X164927349Y-95680983D01*
X164946871Y-95790854D01*
X164980143Y-95841387D01*
X165048450Y-95855505D01*
X165089951Y-95856090D01*
X165227563Y-95886486D01*
X165335835Y-95964967D01*
X165391358Y-96072469D01*
X165394269Y-96103895D01*
X165356857Y-96216825D01*
X165259544Y-96304605D01*
X165124709Y-96349329D01*
X165084513Y-96351699D01*
X164991960Y-96356701D01*
X164950830Y-96387581D01*
X164940283Y-96468155D01*
X164939960Y-96516903D01*
X164911833Y-96671167D01*
X164836612Y-96786290D01*
X164728038Y-96843951D01*
X164692155Y-96847309D01*
X164602246Y-96819278D01*
X164526952Y-96764708D01*
X164457925Y-96637273D01*
X164444350Y-96516903D01*
X164439974Y-96411129D01*
X164412953Y-96364122D01*
X164342451Y-96352069D01*
X164299797Y-96351699D01*
X164166641Y-96324242D01*
X164056882Y-96254181D01*
X163995495Y-96159981D01*
X163990041Y-96122668D01*
X164025645Y-96029521D01*
X164114178Y-95939452D01*
X164228223Y-95874706D01*
X164318570Y-95856090D01*
X164399203Y-95849734D01*
X164435047Y-95814872D01*
X164444141Y-95727811D01*
X164444350Y-95690886D01*
X164469607Y-95547400D01*
X164535227Y-95431956D01*
X164625981Y-95367159D01*
X164666929Y-95360480D01*
X164773708Y-95398413D01*
G37*
G36*
X162492011Y-97012691D02*
G01*
X162799166Y-97013543D01*
X163040918Y-97015538D01*
X163225866Y-97019147D01*
X163362610Y-97024842D01*
X163459748Y-97033094D01*
X163525881Y-97044375D01*
X163569607Y-97059154D01*
X163599525Y-97077905D01*
X163618334Y-97095114D01*
X163688624Y-97192932D01*
X163686216Y-97287983D01*
X163622023Y-97389969D01*
X163543110Y-97487472D01*
X160726650Y-97511250D01*
X160623712Y-97408312D01*
X160539480Y-97297576D01*
X160531469Y-97200097D01*
X160598641Y-97099902D01*
X160603374Y-97095114D01*
X160628549Y-97073028D01*
X160660990Y-97055272D01*
X160709299Y-97041373D01*
X160782073Y-97030860D01*
X160887912Y-97023263D01*
X161035415Y-97018110D01*
X161233181Y-97014931D01*
X161489811Y-97013253D01*
X161813902Y-97012605D01*
X162110854Y-97012512D01*
X162492011Y-97012691D01*
G37*
X154452000Y-95949000D02*
X153092000Y-95949000D01*
X153092000Y-95949000D02*
X153092000Y-98107000D01*
X157714000Y-95949000D02*
X157714000Y-98107000D01*
X156354000Y-95949000D02*
X157714000Y-95949000D01*
X157714000Y-98107000D02*
X156354000Y-98107000D01*
X153092000Y-98107000D02*
X154452000Y-98107000D01*
G36*
X126352600Y-91732608D02*
G01*
X126359920Y-91692601D01*
X126396818Y-91555469D01*
X126465670Y-91422295D01*
X126559600Y-91302634D01*
X126671735Y-91206041D01*
X126738532Y-91166284D01*
X126826035Y-91128532D01*
X126920421Y-91101857D01*
X127030097Y-91084862D01*
X127163470Y-91076148D01*
X127292258Y-91074201D01*
X127687493Y-91089606D01*
X128058627Y-91135840D01*
X128405851Y-91212931D01*
X128569181Y-91262598D01*
X128878826Y-91384492D01*
X129161642Y-91534894D01*
X129417728Y-91713908D01*
X129647182Y-91921639D01*
X129850101Y-92158192D01*
X130026583Y-92423671D01*
X130176725Y-92718181D01*
X130300626Y-93041827D01*
X130335252Y-93153274D01*
X130381434Y-93291466D01*
X130431735Y-93400338D01*
X130491623Y-93489772D01*
X130564574Y-93567794D01*
X130616138Y-93614941D01*
X130659880Y-93650265D01*
X130704652Y-93678542D01*
X130759309Y-93704548D01*
X130832706Y-93733061D01*
X130933696Y-93768856D01*
X130943774Y-93772366D01*
X131281955Y-93907759D01*
X131590209Y-94067965D01*
X131868259Y-94252695D01*
X132115823Y-94461657D01*
X132332622Y-94694560D01*
X132518378Y-94951115D01*
X132672810Y-95231030D01*
X132795640Y-95534015D01*
X132865649Y-95771417D01*
X132912093Y-95980595D01*
X132942369Y-96180849D01*
X132957998Y-96386650D01*
X132960500Y-96612470D01*
X132959483Y-96664498D01*
X132954040Y-96808277D01*
X132943626Y-96921035D01*
X132925386Y-97010922D01*
X132896468Y-97086088D01*
X132854020Y-97154682D01*
X132795187Y-97224854D01*
X132745082Y-97276910D01*
X132681499Y-97345631D01*
X132642988Y-97400851D01*
X132623110Y-97452429D01*
X132619823Y-97468625D01*
X132587609Y-97577946D01*
X132531063Y-97692791D01*
X132458947Y-97797622D01*
X132397970Y-97862052D01*
X132292172Y-97944053D01*
X132187317Y-97998927D01*
X132070683Y-98034308D01*
X132015551Y-98045707D01*
X131927017Y-98062682D01*
X131808148Y-98084707D01*
X131662010Y-98111254D01*
X131491669Y-98141797D01*
X131300192Y-98175809D01*
X131090644Y-98212762D01*
X130866094Y-98252130D01*
X130629606Y-98293385D01*
X130384247Y-98336002D01*
X130133083Y-98379452D01*
X129879181Y-98423209D01*
X129625607Y-98466745D01*
X129375428Y-98509535D01*
X129131709Y-98551050D01*
X128897518Y-98590764D01*
X128675920Y-98628151D01*
X128469981Y-98662682D01*
X128282769Y-98693831D01*
X128117349Y-98721071D01*
X127976788Y-98743876D01*
X127864152Y-98761717D01*
X127782507Y-98774069D01*
X127734920Y-98780404D01*
X127724941Y-98781151D01*
X127644937Y-98775237D01*
X127565258Y-98761786D01*
X127535676Y-98754008D01*
X127385543Y-98687801D01*
X127254411Y-98591264D01*
X127148450Y-98469785D01*
X127088109Y-98363118D01*
X127079828Y-98338613D01*
X127068460Y-98294516D01*
X127053752Y-98229457D01*
X127035450Y-98142064D01*
X127013300Y-98030965D01*
X126987049Y-97894790D01*
X126956442Y-97732167D01*
X126921226Y-97541724D01*
X126881147Y-97322091D01*
X126835952Y-97071896D01*
X126785386Y-96789768D01*
X126729196Y-96474335D01*
X126667129Y-96124226D01*
X126598929Y-95738070D01*
X126531366Y-95354415D01*
X126472816Y-95021070D01*
X126416158Y-94697545D01*
X126361767Y-94386019D01*
X126310016Y-94088671D01*
X126261279Y-93807682D01*
X126215929Y-93545230D01*
X126174341Y-93303496D01*
X126136889Y-93084659D01*
X126103946Y-92890899D01*
X126075886Y-92724396D01*
X126053084Y-92587328D01*
X126035912Y-92481876D01*
X126024744Y-92410220D01*
X126019956Y-92374539D01*
X126019795Y-92371758D01*
X126035178Y-92250888D01*
X126077319Y-92122648D01*
X126140207Y-91999358D01*
X126217830Y-91893337D01*
X126283413Y-91831558D01*
X126328731Y-91787290D01*
X126529757Y-91787290D01*
X126533109Y-91813562D01*
X126542915Y-91876292D01*
X126558803Y-91973309D01*
X126580397Y-92102441D01*
X126607325Y-92261519D01*
X126639212Y-92448369D01*
X126675685Y-92660823D01*
X126716370Y-92896707D01*
X126760892Y-93153852D01*
X126808879Y-93430087D01*
X126859956Y-93723239D01*
X126913750Y-94031139D01*
X126969887Y-94351615D01*
X127027992Y-94682496D01*
X127040280Y-94752362D01*
X127116696Y-95186071D01*
X127186722Y-95582063D01*
X127250534Y-95941295D01*
X127308308Y-96264724D01*
X127360221Y-96553308D01*
X127406450Y-96808004D01*
X127447171Y-97029769D01*
X127482561Y-97219559D01*
X127512796Y-97378333D01*
X127538054Y-97507047D01*
X127558510Y-97606658D01*
X127574341Y-97678125D01*
X127585724Y-97722403D01*
X127591112Y-97737673D01*
X127647792Y-97822772D01*
X127728834Y-97904883D01*
X127820571Y-97971759D01*
X127889475Y-98005017D01*
X127946872Y-98021563D01*
X128009565Y-98030805D01*
X128083437Y-98032427D01*
X128174368Y-98026115D01*
X128288240Y-98011553D01*
X128430933Y-97988426D01*
X128530822Y-97970673D01*
X128662188Y-97946332D01*
X128763419Y-97925859D01*
X128843078Y-97906717D01*
X128909730Y-97886364D01*
X128971940Y-97862263D01*
X129038272Y-97831872D01*
X129097364Y-97802678D01*
X129462750Y-97600002D01*
X129796385Y-97374705D01*
X130098088Y-97126995D01*
X130367681Y-96857081D01*
X130604983Y-96565169D01*
X130809815Y-96251469D01*
X130981998Y-95916188D01*
X131121352Y-95559535D01*
X131171307Y-95399066D01*
X131196182Y-95306415D01*
X131222531Y-95197415D01*
X131248601Y-95080643D01*
X131272637Y-94964675D01*
X131292885Y-94858087D01*
X131307592Y-94769454D01*
X131315002Y-94707352D01*
X131315548Y-94693806D01*
X131298492Y-94673939D01*
X131251496Y-94642099D01*
X131180820Y-94601426D01*
X131092725Y-94555060D01*
X130993471Y-94506142D01*
X130889316Y-94457811D01*
X130786522Y-94413208D01*
X130691349Y-94375473D01*
X130654508Y-94362204D01*
X130532871Y-94318637D01*
X130440322Y-94281631D01*
X130368186Y-94247128D01*
X130307788Y-94211069D01*
X130262955Y-94179030D01*
X130193736Y-94111226D01*
X130125709Y-94018551D01*
X130067687Y-93914612D01*
X130030543Y-93820147D01*
X129918818Y-93488053D01*
X129790834Y-93189993D01*
X129645003Y-92923621D01*
X129479739Y-92686590D01*
X129293456Y-92476554D01*
X129084566Y-92291166D01*
X128912845Y-92167376D01*
X128799320Y-92094240D01*
X128702470Y-92036907D01*
X128608620Y-91988261D01*
X128504096Y-91941183D01*
X128383270Y-91891754D01*
X128156480Y-91814120D01*
X127902896Y-91749162D01*
X127633357Y-91698497D01*
X127358706Y-91663740D01*
X127089783Y-91646505D01*
X126837429Y-91648409D01*
X126775832Y-91652241D01*
X126672272Y-91662431D01*
X126601911Y-91676883D01*
X126558732Y-91698899D01*
X126536718Y-91731783D01*
X126529852Y-91778835D01*
X126529757Y-91787290D01*
X126328731Y-91787290D01*
X126328908Y-91787117D01*
X126352600Y-91732608D01*
G37*
G36*
X129293362Y-93490995D02*
G01*
X129340230Y-93516792D01*
X129369446Y-93563490D01*
X129373772Y-93593785D01*
X129364253Y-93620784D01*
X129337522Y-93676699D01*
X129296324Y-93756674D01*
X129243400Y-93855853D01*
X129181494Y-93969377D01*
X129113347Y-94092391D01*
X129041703Y-94220037D01*
X128969304Y-94347458D01*
X128898892Y-94469797D01*
X128833212Y-94582197D01*
X128775004Y-94679802D01*
X128727012Y-94757754D01*
X128691979Y-94811196D01*
X128672787Y-94835166D01*
X128617001Y-94858246D01*
X128564188Y-94842556D01*
X128543221Y-94823815D01*
X128517358Y-94778195D01*
X128510761Y-94745072D01*
X128520133Y-94720154D01*
X128546445Y-94666144D01*
X128586984Y-94587903D01*
X128639040Y-94490290D01*
X128699900Y-94378165D01*
X128766856Y-94256390D01*
X128837194Y-94129822D01*
X128908205Y-94003323D01*
X128977177Y-93881753D01*
X129041400Y-93769971D01*
X129098161Y-93672837D01*
X129144750Y-93595212D01*
X129178457Y-93541956D01*
X129193561Y-93521035D01*
X129240564Y-93490832D01*
X129293362Y-93490995D01*
G37*
G36*
X129342811Y-94465071D02*
G01*
X129350235Y-94471328D01*
X129364250Y-94490369D01*
X129370527Y-94514939D01*
X129367602Y-94548391D01*
X129354006Y-94594080D01*
X129328273Y-94655357D01*
X129288936Y-94735576D01*
X129234529Y-94838091D01*
X129163584Y-94966253D01*
X129074634Y-95123418D01*
X129033279Y-95195863D01*
X128942825Y-95353898D01*
X128869522Y-95481212D01*
X128811093Y-95581166D01*
X128765263Y-95657121D01*
X128729759Y-95712436D01*
X128702305Y-95750472D01*
X128680625Y-95774589D01*
X128662446Y-95788147D01*
X128645491Y-95794508D01*
X128627487Y-95797031D01*
X128626207Y-95797144D01*
X128573659Y-95794392D01*
X128536621Y-95779831D01*
X128535194Y-95778510D01*
X128515487Y-95740163D01*
X128510761Y-95708678D01*
X128520131Y-95683361D01*
X128546437Y-95628956D01*
X128586970Y-95550330D01*
X128639019Y-95452348D01*
X128699877Y-95339878D01*
X128766833Y-95217787D01*
X128837179Y-95090939D01*
X128908207Y-94964203D01*
X128977205Y-94842444D01*
X129041467Y-94730529D01*
X129098282Y-94633325D01*
X129144941Y-94555699D01*
X129178736Y-94502516D01*
X129193561Y-94482116D01*
X129237708Y-94455215D01*
X129294002Y-94449082D01*
X129342811Y-94465071D01*
G37*
D13*
X133350000Y-86605000D02*
X133350000Y-95005000D01*
X133350000Y-95005000D02*
X143510000Y-95005000D01*
X143510000Y-95005000D02*
X143510000Y-86633000D01*
X143510000Y-86605000D02*
X133350000Y-86605000D01*
X143510000Y-88633000D02*
X133350000Y-88633000D01*
X143510000Y-94126000D02*
X133350000Y-94126000D01*
D12*
X157714000Y-100774000D02*
X157714000Y-98616000D01*
X153092000Y-98616000D02*
X154452000Y-98616000D01*
X157714000Y-98616000D02*
X156354000Y-98616000D01*
X156354000Y-100774000D02*
X157714000Y-100774000D01*
X153092000Y-100774000D02*
X153092000Y-98616000D01*
X154452000Y-100774000D02*
X153092000Y-100774000D01*
D13*
X183247500Y-101821000D02*
X183890500Y-107221000D01*
X177967500Y-101821000D02*
X178611500Y-107221000D01*
X181904500Y-101821000D02*
X182548500Y-107221000D01*
X178602500Y-101821000D02*
X179246500Y-107221000D01*
X168856500Y-107569000D02*
X171166500Y-107569000D01*
X185959500Y-107221000D02*
X185959500Y-101821000D01*
X185959500Y-107221000D02*
X174035500Y-107221000D01*
X181251500Y-101821000D02*
X181895500Y-107221000D01*
X176679500Y-101821000D02*
X177323500Y-107221000D01*
X181251500Y-107221000D02*
X181251500Y-101821000D01*
X175972500Y-107221000D02*
X175972500Y-101821000D01*
X177967500Y-107221000D02*
X177967500Y-101821000D01*
X176679500Y-107221000D02*
X176679500Y-101821000D01*
X181904500Y-107221000D02*
X181904500Y-101821000D01*
X183936500Y-101821000D02*
X184580500Y-107221000D01*
X179927500Y-107221000D02*
X179927500Y-101821000D01*
X179927500Y-101821000D02*
X180570500Y-107221000D01*
X179255500Y-101821000D02*
X179899500Y-107221000D01*
X182576500Y-107221000D02*
X182576500Y-101821000D01*
X183247500Y-107221000D02*
X183247500Y-101821000D01*
X172932500Y-105637000D02*
X172932500Y-103405000D01*
X171166500Y-101473000D02*
X168868500Y-101473000D01*
X177314500Y-107221000D02*
X177314500Y-101821000D01*
X184608500Y-107221000D02*
X184608500Y-101821000D01*
X178602500Y-107221000D02*
X178602500Y-101821000D01*
X175972500Y-101821000D02*
X176615500Y-107221000D01*
X177314500Y-101821000D02*
X177958500Y-107221000D01*
X180580500Y-107221000D02*
X180580500Y-101821000D01*
X166963500Y-103366000D02*
X166963500Y-105676000D01*
X183936500Y-107221000D02*
X183936500Y-101821000D01*
X179255500Y-107221000D02*
X179255500Y-101821000D01*
X180580500Y-101821000D02*
X181223500Y-107221000D01*
X185959500Y-101821000D02*
X174035500Y-101821000D01*
X182576500Y-101821000D02*
X183219500Y-107221000D01*
G36*
X138629372Y-108363796D02*
G01*
X138821654Y-108364539D01*
X138969959Y-108366267D01*
X139080677Y-108369379D01*
X139160199Y-108374273D01*
X139214916Y-108381349D01*
X139251219Y-108391008D01*
X139275499Y-108403647D01*
X139294146Y-108419667D01*
X139294877Y-108420396D01*
X139343423Y-108489899D01*
X139339998Y-108557006D01*
X139283949Y-108632554D01*
X139281978Y-108634535D01*
X139212318Y-108704195D01*
X137561124Y-108704195D01*
X137491465Y-108634535D01*
X137434161Y-108558656D01*
X137429496Y-108491474D01*
X137476818Y-108422154D01*
X137478565Y-108420396D01*
X137497118Y-108404230D01*
X137521044Y-108391461D01*
X137556733Y-108381689D01*
X137610577Y-108374515D01*
X137688965Y-108369540D01*
X137798290Y-108366364D01*
X137944941Y-108364588D01*
X138135310Y-108363812D01*
X138375788Y-108363637D01*
X138386721Y-108363637D01*
X138629372Y-108363796D01*
G37*
G36*
X138727280Y-108023078D02*
G01*
X138046162Y-108023078D01*
X138046162Y-107881178D01*
X138727280Y-107881178D01*
X138727280Y-108023078D01*
G37*
G36*
X137476941Y-106139946D02*
G01*
X137437824Y-106082612D01*
X137431043Y-106053347D01*
X137440882Y-106040917D01*
X137463613Y-106030963D01*
X137504895Y-106023217D01*
X137570385Y-106017412D01*
X137665741Y-106013279D01*
X137796622Y-106010551D01*
X137968685Y-106008960D01*
X138187589Y-106008238D01*
X138386721Y-106008106D01*
X138644622Y-106008350D01*
X138851422Y-106009262D01*
X139012781Y-106011109D01*
X139134355Y-106014159D01*
X139221803Y-106018680D01*
X139280783Y-106024940D01*
X139316954Y-106033207D01*
X139335972Y-106043748D01*
X139342399Y-106053347D01*
X139334141Y-106085417D01*
X139292863Y-106144545D01*
X139216211Y-106233475D01*
X139101829Y-106354950D01*
X138958380Y-106500685D01*
X138557000Y-106902782D01*
X138557000Y-107622496D01*
X138677615Y-107631223D01*
X138753922Y-107640600D01*
X138788937Y-107660767D01*
X138798123Y-107701938D01*
X138798229Y-107710899D01*
X138798229Y-107781849D01*
X138393226Y-107789727D01*
X138230438Y-107792049D01*
X138115825Y-107791156D01*
X138040858Y-107786331D01*
X137997006Y-107776855D01*
X137975740Y-107762012D01*
X137971586Y-107754252D01*
X137964364Y-107683928D01*
X138006635Y-107640919D01*
X138097840Y-107625778D01*
X138102031Y-107625759D01*
X138216442Y-107625759D01*
X138216442Y-106902782D01*
X137815062Y-106500685D01*
X137663205Y-106346239D01*
X137589372Y-106267518D01*
X137961023Y-106267518D01*
X137980762Y-106312862D01*
X138030290Y-106378310D01*
X138095074Y-106448519D01*
X138160581Y-106508145D01*
X138212277Y-106541847D01*
X138223537Y-106544650D01*
X138252505Y-106537307D01*
X138267607Y-106502890D01*
X138272909Y-106428836D01*
X138273201Y-106391234D01*
X138500241Y-106391234D01*
X138506334Y-106490183D01*
X138527607Y-106539141D01*
X138568547Y-106538918D01*
X138633643Y-106490322D01*
X138697165Y-106426709D01*
X138773754Y-106339790D01*
X138805798Y-106283434D01*
X138791969Y-106251407D01*
X138730938Y-106237474D01*
X138656330Y-106235145D01*
X138500241Y-106235145D01*
X138500241Y-106391234D01*
X138273201Y-106391234D01*
X138273201Y-106235145D01*
X138117112Y-106235145D01*
X138019569Y-106240727D01*
X137967656Y-106256495D01*
X137961023Y-106267518D01*
X137589372Y-106267518D01*
X137551283Y-106226907D01*
X137476941Y-106139946D01*
G37*
G36*
X138486021Y-108095231D02*
G01*
X138542055Y-108102468D01*
X138568313Y-108121181D01*
X138578285Y-108156815D01*
X138580170Y-108172072D01*
X138589150Y-108250117D01*
X138184292Y-108250117D01*
X138193272Y-108172072D01*
X138200942Y-108130119D01*
X138220735Y-108106765D01*
X138266141Y-108096567D01*
X138350651Y-108094082D01*
X138386721Y-108094028D01*
X138486021Y-108095231D01*
G37*
X139700000Y-101524000D02*
X139700000Y-104318000D01*
X137160000Y-101397000D02*
X137160000Y-104445000D01*
X162941000Y-101524000D02*
X162941000Y-104318000D01*
X160401000Y-101397000D02*
X160401000Y-104445000D01*
X166751000Y-94126000D02*
X156591000Y-94126000D01*
X166751000Y-95005000D02*
X166751000Y-86633000D01*
X166751000Y-86605000D02*
X156591000Y-86605000D01*
X156591000Y-95005000D02*
X166751000Y-95005000D01*
X156591000Y-86605000D02*
X156591000Y-95005000D01*
X166751000Y-88633000D02*
X156591000Y-88633000D01*
%LPC*%
D14*
X146619000Y-97933000D03*
X144719000Y-97933000D03*
X145669000Y-99933000D03*
D15*
X149098000Y-91205000D03*
X149098000Y-94163000D03*
D16*
X149065000Y-104521000D03*
X151125000Y-104521000D03*
D17*
X130216500Y-104521000D03*
D18*
X127666500Y-101971000D03*
X127666500Y-107071000D03*
X132766500Y-107071000D03*
X132766500Y-101971000D03*
D19*
X168559000Y-98867000D03*
X168559000Y-97917000D03*
X168559000Y-96967000D03*
X165959000Y-96967000D03*
X165959000Y-98867000D03*
D20*
X172593000Y-96661000D03*
X172593000Y-94601000D03*
D21*
X156882000Y-97028000D03*
X153924000Y-97028000D03*
D22*
X140970000Y-91205000D03*
X135890000Y-91205000D03*
D21*
X153924000Y-99695000D03*
X156882000Y-99695000D03*
D17*
X170011500Y-104521000D03*
D18*
X172561500Y-107071000D03*
X172561500Y-101971000D03*
X167461500Y-101971000D03*
X167461500Y-107071000D03*
D23*
X138430000Y-101397000D03*
X138430000Y-104521000D03*
X161671000Y-101397000D03*
X161671000Y-104521000D03*
D22*
X164211000Y-91205000D03*
X159131000Y-91205000D03*
M02*
