G04 #@! TF.GenerationSoftware,KiCad,Pcbnew,(6.0.7)*
G04 #@! TF.CreationDate,2022-10-20T22:45:04-03:00*
G04 #@! TF.ProjectId,BIAS-T,42494153-2d54-42e6-9b69-6361645f7063,rev?*
G04 #@! TF.SameCoordinates,Original*
G04 #@! TF.FileFunction,Copper,L1,Top*
G04 #@! TF.FilePolarity,Positive*
%FSLAX46Y46*%
G04 Gerber Fmt 4.6, Leading zero omitted, Abs format (unit mm)*
G04 Created by KiCad (PCBNEW (6.0.7)) date 2022-10-20 22:45:04*
%MOMM*%
%LPD*%
G01*
G04 APERTURE LIST*
G04 #@! TA.AperFunction,SMDPad,CuDef*
%ADD10R,0.700000X1.250000*%
G04 #@! TD*
G04 #@! TA.AperFunction,SMDPad,CuDef*
%ADD11R,1.701000X1.208000*%
G04 #@! TD*
G04 #@! TA.AperFunction,SMDPad,CuDef*
%ADD12R,1.410000X1.350000*%
G04 #@! TD*
G04 #@! TA.AperFunction,ComponentPad*
%ADD13C,2.000000*%
G04 #@! TD*
G04 #@! TA.AperFunction,ComponentPad*
%ADD14C,2.500000*%
G04 #@! TD*
G04 #@! TA.AperFunction,SMDPad,CuDef*
%ADD15R,1.000000X0.600000*%
G04 #@! TD*
G04 #@! TA.AperFunction,SMDPad,CuDef*
%ADD16R,1.350000X1.410000*%
G04 #@! TD*
G04 #@! TA.AperFunction,SMDPad,CuDef*
%ADD17R,1.208000X1.701000*%
G04 #@! TD*
G04 #@! TA.AperFunction,ComponentPad*
%ADD18C,2.200000*%
G04 #@! TD*
G04 #@! TA.AperFunction,SMDPad,CuDef*
%ADD19R,2.000000X1.200000*%
G04 #@! TD*
G04 #@! TA.AperFunction,Conductor*
%ADD20C,1.500000*%
G04 #@! TD*
G04 #@! TA.AperFunction,Conductor*
%ADD21C,0.250000*%
G04 #@! TD*
G04 #@! TA.AperFunction,Conductor*
%ADD22C,0.500000*%
G04 #@! TD*
G04 APERTURE END LIST*
D10*
X146619000Y-97933000D03*
X144719000Y-97933000D03*
X145669000Y-99933000D03*
D11*
X149098000Y-91205000D03*
X149098000Y-94163000D03*
D12*
X149065000Y-104521000D03*
X151125000Y-104521000D03*
D13*
X130216500Y-104521000D03*
D14*
X127666500Y-101971000D03*
X127666500Y-107071000D03*
X132766500Y-107071000D03*
X132766500Y-101971000D03*
D15*
X168559000Y-98867000D03*
X168559000Y-97917000D03*
X168559000Y-96967000D03*
X165959000Y-96967000D03*
X165959000Y-98867000D03*
D16*
X172593000Y-96661000D03*
X172593000Y-94601000D03*
D17*
X156882000Y-97028000D03*
X153924000Y-97028000D03*
D18*
X140970000Y-91205000D03*
X135890000Y-91205000D03*
D17*
X153924000Y-99695000D03*
X156882000Y-99695000D03*
D13*
X170011500Y-104521000D03*
D14*
X172561500Y-107071000D03*
X172561500Y-101971000D03*
X167461500Y-101971000D03*
X167461500Y-107071000D03*
D19*
X138430000Y-101397000D03*
X138430000Y-104521000D03*
X161671000Y-101397000D03*
X161671000Y-104521000D03*
D18*
X164211000Y-91205000D03*
X159131000Y-91205000D03*
D20*
X161671000Y-104521000D02*
X170053000Y-104521000D01*
X161671000Y-104521000D02*
X151257000Y-104521000D01*
X138430000Y-104521000D02*
X148717000Y-104521000D01*
X138430000Y-104521000D02*
X130175000Y-104521000D01*
D21*
X130216500Y-104521000D02*
X130175000Y-104521000D01*
X130216500Y-104521000D02*
X130216500Y-104479500D01*
X130216500Y-104479500D02*
X130302000Y-104394000D01*
D22*
X164150000Y-98867000D02*
X158308000Y-98867000D01*
X168559000Y-97917000D02*
X168529000Y-97917000D01*
X172593000Y-93853000D02*
X172593000Y-94615000D01*
X172615000Y-94361000D02*
X172720000Y-94361000D01*
X169059000Y-97917000D02*
X172615000Y-94361000D01*
X157353000Y-99822000D02*
X156845000Y-99822000D01*
X158308000Y-98867000D02*
X157353000Y-99822000D01*
X164211000Y-91186000D02*
X169926000Y-91186000D01*
X168529000Y-97917000D02*
X169059000Y-97917000D01*
X164150000Y-98867000D02*
X161544000Y-101473000D01*
X165959000Y-98867000D02*
X164150000Y-98867000D01*
X169926000Y-91186000D02*
X172593000Y-93853000D01*
X140970000Y-91205000D02*
X149079000Y-91205000D01*
X149079000Y-91205000D02*
X149098000Y-91186000D01*
X144719000Y-97933000D02*
X144719000Y-91252000D01*
X139843000Y-99933000D02*
X138303000Y-101473000D01*
X145669000Y-99933000D02*
X139843000Y-99933000D01*
X149098000Y-94443000D02*
X149098000Y-96647000D01*
X147828000Y-96774000D02*
X146685000Y-97917000D01*
X153797000Y-97028000D02*
X153543000Y-96774000D01*
X153543000Y-96774000D02*
X147828000Y-96774000D01*
X157287000Y-96967000D02*
X157353000Y-96901000D01*
X165959000Y-96967000D02*
X157287000Y-96967000D01*
G04 #@! TA.AperFunction,Conductor*
G36*
X134481167Y-90190502D02*
G01*
X134527660Y-90244158D01*
X134537764Y-90314432D01*
X134520479Y-90362335D01*
X134455417Y-90468506D01*
X134450936Y-90477300D01*
X134357866Y-90701991D01*
X134354817Y-90711376D01*
X134298041Y-90947863D01*
X134296498Y-90957610D01*
X134277416Y-91200070D01*
X134277416Y-91209930D01*
X134296498Y-91452390D01*
X134298041Y-91462137D01*
X134354817Y-91698624D01*
X134357866Y-91708009D01*
X134450936Y-91932700D01*
X134455417Y-91941494D01*
X134574713Y-92136167D01*
X134585170Y-92145627D01*
X134593946Y-92141844D01*
X135800905Y-90934885D01*
X135863217Y-90900859D01*
X135934032Y-90905924D01*
X135979095Y-90934885D01*
X137183010Y-92138800D01*
X137195390Y-92145560D01*
X137203040Y-92139833D01*
X137324583Y-91941494D01*
X137329064Y-91932700D01*
X137422134Y-91708009D01*
X137425183Y-91698624D01*
X137481959Y-91462137D01*
X137483502Y-91452390D01*
X137502584Y-91209930D01*
X137502584Y-91200070D01*
X137483502Y-90957610D01*
X137481959Y-90947863D01*
X137425183Y-90711376D01*
X137422134Y-90701991D01*
X137329064Y-90477300D01*
X137324583Y-90468506D01*
X137259521Y-90362335D01*
X137240983Y-90293802D01*
X137262439Y-90226125D01*
X137317078Y-90180792D01*
X137366954Y-90170500D01*
X139492459Y-90170500D01*
X139560580Y-90190502D01*
X139607073Y-90244158D01*
X139617177Y-90314432D01*
X139599892Y-90362335D01*
X139561270Y-90425360D01*
X139532384Y-90472498D01*
X139530491Y-90477068D01*
X139530489Y-90477072D01*
X139466745Y-90630965D01*
X139435495Y-90706409D01*
X139376391Y-90952597D01*
X139356526Y-91205000D01*
X139376391Y-91457403D01*
X139435495Y-91703591D01*
X139437388Y-91708162D01*
X139437389Y-91708164D01*
X139527916Y-91926715D01*
X139532384Y-91937502D01*
X139664672Y-92153376D01*
X139829102Y-92345898D01*
X140021624Y-92510328D01*
X140237498Y-92642616D01*
X140242068Y-92644509D01*
X140242072Y-92644511D01*
X140466836Y-92737611D01*
X140471409Y-92739505D01*
X140556032Y-92759821D01*
X140712784Y-92797454D01*
X140712790Y-92797455D01*
X140717597Y-92798609D01*
X140970000Y-92818474D01*
X141222403Y-92798609D01*
X141227210Y-92797455D01*
X141227216Y-92797454D01*
X141383968Y-92759821D01*
X141468591Y-92739505D01*
X141473164Y-92737611D01*
X141697928Y-92644511D01*
X141697932Y-92644509D01*
X141702502Y-92642616D01*
X141918376Y-92510328D01*
X142110898Y-92345898D01*
X142275328Y-92153376D01*
X142354815Y-92023665D01*
X142407463Y-91976034D01*
X142462248Y-91963500D01*
X143834500Y-91963500D01*
X143902621Y-91983502D01*
X143949114Y-92037158D01*
X143960500Y-92089500D01*
X143960500Y-96963126D01*
X143940498Y-97031247D01*
X143935339Y-97038673D01*
X143918385Y-97061295D01*
X143867255Y-97197684D01*
X143860500Y-97259866D01*
X143860500Y-98606134D01*
X143867255Y-98668316D01*
X143918385Y-98804705D01*
X144005739Y-98921261D01*
X144012919Y-98926642D01*
X144040982Y-98947674D01*
X144083497Y-99004533D01*
X144088523Y-99075351D01*
X144054463Y-99137645D01*
X143992132Y-99171635D01*
X143965417Y-99174500D01*
X139910070Y-99174500D01*
X139891120Y-99173067D01*
X139876885Y-99170901D01*
X139876881Y-99170901D01*
X139869651Y-99169801D01*
X139862359Y-99170394D01*
X139862356Y-99170394D01*
X139816982Y-99174085D01*
X139806767Y-99174500D01*
X139798707Y-99174500D01*
X139795073Y-99174924D01*
X139795067Y-99174924D01*
X139782042Y-99176443D01*
X139770480Y-99177791D01*
X139766132Y-99178221D01*
X139693364Y-99184140D01*
X139686403Y-99186395D01*
X139680463Y-99187582D01*
X139674588Y-99188971D01*
X139667319Y-99189818D01*
X139598670Y-99214736D01*
X139594542Y-99216153D01*
X139532064Y-99236393D01*
X139532062Y-99236394D01*
X139525101Y-99238649D01*
X139518846Y-99242445D01*
X139513372Y-99244951D01*
X139507942Y-99247670D01*
X139501063Y-99250167D01*
X139494943Y-99254180D01*
X139494942Y-99254180D01*
X139440024Y-99290186D01*
X139436320Y-99292523D01*
X139373893Y-99330405D01*
X139365516Y-99337803D01*
X139365492Y-99337776D01*
X139362500Y-99340429D01*
X139359267Y-99343132D01*
X139353148Y-99347144D01*
X139348116Y-99352456D01*
X139299872Y-99403383D01*
X139297494Y-99405825D01*
X138451724Y-100251595D01*
X138389412Y-100285621D01*
X138362629Y-100288500D01*
X137381866Y-100288500D01*
X137319684Y-100295255D01*
X137183295Y-100346385D01*
X137066739Y-100433739D01*
X136979385Y-100550295D01*
X136928255Y-100686684D01*
X136921500Y-100748866D01*
X136921500Y-102045134D01*
X136928255Y-102107316D01*
X136979385Y-102243705D01*
X137066739Y-102360261D01*
X137183295Y-102447615D01*
X137319684Y-102498745D01*
X137381866Y-102505500D01*
X139478134Y-102505500D01*
X139540316Y-102498745D01*
X139676705Y-102447615D01*
X139793261Y-102360261D01*
X139880615Y-102243705D01*
X139931745Y-102107316D01*
X139938500Y-102045134D01*
X139938500Y-100962371D01*
X139958502Y-100894250D01*
X139975405Y-100873276D01*
X140120276Y-100728405D01*
X140182588Y-100694379D01*
X140209371Y-100691500D01*
X144738618Y-100691500D01*
X144806739Y-100711502D01*
X144853232Y-100765158D01*
X144856599Y-100773269D01*
X144865231Y-100796293D01*
X144868385Y-100804705D01*
X144955739Y-100921261D01*
X145072295Y-101008615D01*
X145208684Y-101059745D01*
X145270866Y-101066500D01*
X146067134Y-101066500D01*
X146129316Y-101059745D01*
X146265705Y-101008615D01*
X146382261Y-100921261D01*
X146469615Y-100804705D01*
X146520745Y-100668316D01*
X146527500Y-100606134D01*
X146527500Y-100590169D01*
X152812001Y-100590169D01*
X152812371Y-100596990D01*
X152817895Y-100647852D01*
X152821521Y-100663104D01*
X152866676Y-100783554D01*
X152875214Y-100799149D01*
X152951715Y-100901224D01*
X152964276Y-100913785D01*
X153066351Y-100990286D01*
X153081946Y-100998824D01*
X153202394Y-101043978D01*
X153217649Y-101047605D01*
X153268514Y-101053131D01*
X153275328Y-101053500D01*
X153651885Y-101053500D01*
X153667124Y-101049025D01*
X153668329Y-101047635D01*
X153670000Y-101039952D01*
X153670000Y-101035384D01*
X154178000Y-101035384D01*
X154182475Y-101050623D01*
X154183865Y-101051828D01*
X154191548Y-101053499D01*
X154572669Y-101053499D01*
X154579490Y-101053129D01*
X154630352Y-101047605D01*
X154645604Y-101043979D01*
X154766054Y-100998824D01*
X154781649Y-100990286D01*
X154883724Y-100913785D01*
X154896285Y-100901224D01*
X154972786Y-100799149D01*
X154981324Y-100783554D01*
X155026478Y-100663106D01*
X155030105Y-100647851D01*
X155035631Y-100596986D01*
X155035813Y-100593634D01*
X155769500Y-100593634D01*
X155776255Y-100655816D01*
X155827385Y-100792205D01*
X155914739Y-100908761D01*
X156031295Y-100996115D01*
X156167684Y-101047245D01*
X156229866Y-101054000D01*
X157534134Y-101054000D01*
X157596316Y-101047245D01*
X157732705Y-100996115D01*
X157849261Y-100908761D01*
X157936615Y-100792205D01*
X157987745Y-100655816D01*
X157994500Y-100593634D01*
X157994500Y-100305371D01*
X158014502Y-100237250D01*
X158031405Y-100216276D01*
X158585276Y-99662405D01*
X158647588Y-99628379D01*
X158674371Y-99625500D01*
X162014629Y-99625500D01*
X162082750Y-99645502D01*
X162129243Y-99699158D01*
X162139347Y-99769432D01*
X162109853Y-99834012D01*
X162103724Y-99840595D01*
X161692724Y-100251595D01*
X161630412Y-100285621D01*
X161603629Y-100288500D01*
X160622866Y-100288500D01*
X160560684Y-100295255D01*
X160424295Y-100346385D01*
X160307739Y-100433739D01*
X160220385Y-100550295D01*
X160169255Y-100686684D01*
X160162500Y-100748866D01*
X160162500Y-102045134D01*
X160169255Y-102107316D01*
X160220385Y-102243705D01*
X160307739Y-102360261D01*
X160424295Y-102447615D01*
X160560684Y-102498745D01*
X160622866Y-102505500D01*
X162719134Y-102505500D01*
X162781316Y-102498745D01*
X162917705Y-102447615D01*
X163034261Y-102360261D01*
X163121615Y-102243705D01*
X163172745Y-102107316D01*
X163179500Y-102045134D01*
X163179500Y-100962371D01*
X163199502Y-100894250D01*
X163216405Y-100873276D01*
X163529878Y-100559803D01*
X166414716Y-100559803D01*
X166419289Y-100569579D01*
X167448688Y-101598978D01*
X167462632Y-101606592D01*
X167464465Y-101606461D01*
X167471080Y-101602210D01*
X168499919Y-100573371D01*
X168506303Y-100561681D01*
X168504844Y-100559803D01*
X171514716Y-100559803D01*
X171519289Y-100569579D01*
X172548688Y-101598978D01*
X172562632Y-101606592D01*
X172564465Y-101606461D01*
X172571080Y-101602210D01*
X173599919Y-100573371D01*
X173606303Y-100561681D01*
X173596891Y-100549570D01*
X173460093Y-100454670D01*
X173452065Y-100449942D01*
X173226093Y-100338505D01*
X173217460Y-100335017D01*
X172977498Y-100258205D01*
X172968438Y-100256029D01*
X172719760Y-100215529D01*
X172710473Y-100214717D01*
X172458553Y-100211419D01*
X172449242Y-100211989D01*
X172199597Y-100245964D01*
X172190478Y-100247902D01*
X171948598Y-100318404D01*
X171939867Y-100321667D01*
X171711058Y-100427151D01*
X171702906Y-100431670D01*
X171523853Y-100549062D01*
X171514716Y-100559803D01*
X168504844Y-100559803D01*
X168496891Y-100549570D01*
X168360093Y-100454670D01*
X168352065Y-100449942D01*
X168126093Y-100338505D01*
X168117460Y-100335017D01*
X167877498Y-100258205D01*
X167868438Y-100256029D01*
X167619760Y-100215529D01*
X167610473Y-100214717D01*
X167358553Y-100211419D01*
X167349242Y-100211989D01*
X167099597Y-100245964D01*
X167090478Y-100247902D01*
X166848598Y-100318404D01*
X166839867Y-100321667D01*
X166611058Y-100427151D01*
X166602906Y-100431670D01*
X166423853Y-100549062D01*
X166414716Y-100559803D01*
X163529878Y-100559803D01*
X164427276Y-99662405D01*
X164489588Y-99628379D01*
X164516371Y-99625500D01*
X165210487Y-99625500D01*
X165254716Y-99633518D01*
X165341289Y-99665973D01*
X165341291Y-99665973D01*
X165348684Y-99668745D01*
X165356532Y-99669598D01*
X165356534Y-99669598D01*
X165407469Y-99675131D01*
X165410866Y-99675500D01*
X166507134Y-99675500D01*
X166569316Y-99668745D01*
X166705705Y-99617615D01*
X166822261Y-99530261D01*
X166909615Y-99413705D01*
X166960745Y-99277316D01*
X166967500Y-99215134D01*
X166967500Y-98518866D01*
X166960745Y-98456684D01*
X166909615Y-98320295D01*
X166822261Y-98203739D01*
X166705705Y-98116385D01*
X166569316Y-98065255D01*
X166507134Y-98058500D01*
X165410866Y-98058500D01*
X165407469Y-98058869D01*
X165356534Y-98064402D01*
X165356532Y-98064402D01*
X165348684Y-98065255D01*
X165341291Y-98068027D01*
X165341289Y-98068027D01*
X165254716Y-98100482D01*
X165210487Y-98108500D01*
X164217070Y-98108500D01*
X164198120Y-98107067D01*
X164183885Y-98104901D01*
X164183881Y-98104901D01*
X164176651Y-98103801D01*
X164169359Y-98104394D01*
X164169356Y-98104394D01*
X164123982Y-98108085D01*
X164113767Y-98108500D01*
X158375070Y-98108500D01*
X158356120Y-98107067D01*
X158341885Y-98104901D01*
X158341881Y-98104901D01*
X158334651Y-98103801D01*
X158327359Y-98104394D01*
X158327356Y-98104394D01*
X158281982Y-98108085D01*
X158271767Y-98108500D01*
X158263707Y-98108500D01*
X158260073Y-98108924D01*
X158260067Y-98108924D01*
X158247042Y-98110443D01*
X158235480Y-98111791D01*
X158231132Y-98112221D01*
X158158364Y-98118140D01*
X158151402Y-98120396D01*
X158145449Y-98121585D01*
X158142290Y-98122332D01*
X158140078Y-98122214D01*
X158133181Y-98123717D01*
X158132707Y-98123773D01*
X158132257Y-98123825D01*
X158132020Y-98121782D01*
X158071395Y-98118538D01*
X158013805Y-98077018D01*
X157987805Y-98010953D01*
X157988040Y-97986105D01*
X157994131Y-97930033D01*
X157994131Y-97930029D01*
X157994500Y-97926634D01*
X157994500Y-97851500D01*
X158014502Y-97783379D01*
X158068158Y-97736886D01*
X158120500Y-97725500D01*
X165210487Y-97725500D01*
X165254716Y-97733518D01*
X165341289Y-97765973D01*
X165341291Y-97765973D01*
X165348684Y-97768745D01*
X165356532Y-97769598D01*
X165356534Y-97769598D01*
X165407469Y-97775131D01*
X165410866Y-97775500D01*
X166507134Y-97775500D01*
X166569316Y-97768745D01*
X166705705Y-97717615D01*
X166822261Y-97630261D01*
X166909615Y-97513705D01*
X166960745Y-97377316D01*
X166967500Y-97315134D01*
X166967500Y-96694885D01*
X167551000Y-96694885D01*
X167555475Y-96710124D01*
X167556865Y-96711329D01*
X167564548Y-96713000D01*
X168286885Y-96713000D01*
X168302124Y-96708525D01*
X168303329Y-96707135D01*
X168305000Y-96699452D01*
X168305000Y-96177116D01*
X168300525Y-96161877D01*
X168299135Y-96160672D01*
X168291452Y-96159001D01*
X168014331Y-96159001D01*
X168007510Y-96159371D01*
X167956648Y-96164895D01*
X167941396Y-96168521D01*
X167820946Y-96213676D01*
X167805351Y-96222214D01*
X167703276Y-96298715D01*
X167690715Y-96311276D01*
X167614214Y-96413351D01*
X167605676Y-96428946D01*
X167560522Y-96549394D01*
X167556895Y-96564649D01*
X167551369Y-96615514D01*
X167551000Y-96622328D01*
X167551000Y-96694885D01*
X166967500Y-96694885D01*
X166967500Y-96618866D01*
X166960745Y-96556684D01*
X166909615Y-96420295D01*
X166822261Y-96303739D01*
X166705705Y-96216385D01*
X166569316Y-96165255D01*
X166507134Y-96158500D01*
X165410866Y-96158500D01*
X165407469Y-96158869D01*
X165356534Y-96164402D01*
X165356532Y-96164402D01*
X165348684Y-96165255D01*
X165341291Y-96168027D01*
X165341289Y-96168027D01*
X165254716Y-96200482D01*
X165210487Y-96208500D01*
X158116150Y-96208500D01*
X158048029Y-96188498D01*
X158001536Y-96134842D01*
X157990887Y-96096107D01*
X157988599Y-96075040D01*
X157988598Y-96075036D01*
X157987745Y-96067184D01*
X157936615Y-95930795D01*
X157849261Y-95814239D01*
X157732705Y-95726885D01*
X157596316Y-95675755D01*
X157534134Y-95669000D01*
X156229866Y-95669000D01*
X156167684Y-95675755D01*
X156031295Y-95726885D01*
X155914739Y-95814239D01*
X155827385Y-95930795D01*
X155776255Y-96067184D01*
X155769500Y-96129366D01*
X155769500Y-97926634D01*
X155776255Y-97988816D01*
X155827385Y-98125205D01*
X155914739Y-98241761D01*
X155939975Y-98260674D01*
X155982490Y-98317532D01*
X155987516Y-98388351D01*
X155953457Y-98450644D01*
X155939979Y-98462322D01*
X155914739Y-98481239D01*
X155827385Y-98597795D01*
X155776255Y-98734184D01*
X155769500Y-98796366D01*
X155769500Y-100593634D01*
X155035813Y-100593634D01*
X155036000Y-100590172D01*
X155036000Y-99967115D01*
X155031525Y-99951876D01*
X155030135Y-99950671D01*
X155022452Y-99949000D01*
X154196115Y-99949000D01*
X154180876Y-99953475D01*
X154179671Y-99954865D01*
X154178000Y-99962548D01*
X154178000Y-101035384D01*
X153670000Y-101035384D01*
X153670000Y-99967115D01*
X153665525Y-99951876D01*
X153664135Y-99950671D01*
X153656452Y-99949000D01*
X152830116Y-99949000D01*
X152814877Y-99953475D01*
X152813672Y-99954865D01*
X152812001Y-99962548D01*
X152812001Y-100590169D01*
X146527500Y-100590169D01*
X146527500Y-99259866D01*
X146521660Y-99206108D01*
X146534188Y-99136225D01*
X146582509Y-99084210D01*
X146646923Y-99066500D01*
X147017134Y-99066500D01*
X147079316Y-99059745D01*
X147215705Y-99008615D01*
X147332261Y-98921261D01*
X147419615Y-98804705D01*
X147470745Y-98668316D01*
X147477500Y-98606134D01*
X147477500Y-98249371D01*
X147497502Y-98181250D01*
X147514405Y-98160276D01*
X148105276Y-97569405D01*
X148167588Y-97535379D01*
X148194371Y-97532500D01*
X152685500Y-97532500D01*
X152753621Y-97552502D01*
X152800114Y-97606158D01*
X152811500Y-97658500D01*
X152811500Y-97926634D01*
X152818255Y-97988816D01*
X152869385Y-98125205D01*
X152956739Y-98241761D01*
X152963918Y-98247141D01*
X152963919Y-98247142D01*
X152982391Y-98260986D01*
X153024906Y-98317845D01*
X153029932Y-98388663D01*
X152995872Y-98450957D01*
X152982392Y-98462637D01*
X152964278Y-98476213D01*
X152951715Y-98488776D01*
X152875214Y-98590851D01*
X152866676Y-98606446D01*
X152821522Y-98726894D01*
X152817895Y-98742149D01*
X152812369Y-98793014D01*
X152812000Y-98799828D01*
X152812000Y-99422885D01*
X152816475Y-99438124D01*
X152817865Y-99439329D01*
X152825548Y-99441000D01*
X155017884Y-99441000D01*
X155033123Y-99436525D01*
X155034328Y-99435135D01*
X155035999Y-99427452D01*
X155035999Y-98799831D01*
X155035629Y-98793010D01*
X155030105Y-98742148D01*
X155026479Y-98726896D01*
X154981324Y-98606446D01*
X154972786Y-98590851D01*
X154896285Y-98488776D01*
X154883722Y-98476213D01*
X154865608Y-98462637D01*
X154823093Y-98405778D01*
X154818069Y-98334959D01*
X154852129Y-98272666D01*
X154865609Y-98260986D01*
X154884081Y-98247142D01*
X154884082Y-98247141D01*
X154891261Y-98241761D01*
X154978615Y-98125205D01*
X155029745Y-97988816D01*
X155036500Y-97926634D01*
X155036500Y-96129366D01*
X155029745Y-96067184D01*
X154978615Y-95930795D01*
X154891261Y-95814239D01*
X154774705Y-95726885D01*
X154638316Y-95675755D01*
X154576134Y-95669000D01*
X153271866Y-95669000D01*
X153209684Y-95675755D01*
X153073295Y-95726885D01*
X152956739Y-95814239D01*
X152869385Y-95930795D01*
X152866233Y-95939203D01*
X152861923Y-95947075D01*
X152859326Y-95945653D01*
X152825652Y-95990488D01*
X152759093Y-96015193D01*
X152750303Y-96015500D01*
X149982500Y-96015500D01*
X149914379Y-95995498D01*
X149867886Y-95941842D01*
X149856500Y-95889500D01*
X149856500Y-95401500D01*
X149876502Y-95333379D01*
X149930158Y-95286886D01*
X149982500Y-95275500D01*
X149996634Y-95275500D01*
X150058816Y-95268745D01*
X150195205Y-95217615D01*
X150311761Y-95130261D01*
X150399115Y-95013705D01*
X150450245Y-94877316D01*
X150457000Y-94815134D01*
X150457000Y-93510866D01*
X150450245Y-93448684D01*
X150399115Y-93312295D01*
X150311761Y-93195739D01*
X150195205Y-93108385D01*
X150058816Y-93057255D01*
X149996634Y-93050500D01*
X148199366Y-93050500D01*
X148137184Y-93057255D01*
X148000795Y-93108385D01*
X147884239Y-93195739D01*
X147796885Y-93312295D01*
X147745755Y-93448684D01*
X147739000Y-93510866D01*
X147739000Y-94815134D01*
X147745755Y-94877316D01*
X147796885Y-95013705D01*
X147884239Y-95130261D01*
X148000795Y-95217615D01*
X148137184Y-95268745D01*
X148199366Y-95275500D01*
X148213500Y-95275500D01*
X148281621Y-95295502D01*
X148328114Y-95349158D01*
X148339500Y-95401500D01*
X148339500Y-95889500D01*
X148319498Y-95957621D01*
X148265842Y-96004114D01*
X148213500Y-96015500D01*
X147895070Y-96015500D01*
X147876120Y-96014067D01*
X147861885Y-96011901D01*
X147861881Y-96011901D01*
X147854651Y-96010801D01*
X147847359Y-96011394D01*
X147847356Y-96011394D01*
X147801982Y-96015085D01*
X147791767Y-96015500D01*
X147783707Y-96015500D01*
X147770417Y-96017049D01*
X147755493Y-96018789D01*
X147751118Y-96019222D01*
X147685661Y-96024546D01*
X147685658Y-96024547D01*
X147678363Y-96025140D01*
X147671399Y-96027396D01*
X147665440Y-96028587D01*
X147659585Y-96029971D01*
X147652319Y-96030818D01*
X147583673Y-96055735D01*
X147579545Y-96057152D01*
X147517064Y-96077393D01*
X147517062Y-96077394D01*
X147510101Y-96079649D01*
X147503846Y-96083445D01*
X147498372Y-96085951D01*
X147492942Y-96088670D01*
X147486063Y-96091167D01*
X147479943Y-96095180D01*
X147479942Y-96095180D01*
X147425024Y-96131186D01*
X147421320Y-96133523D01*
X147358893Y-96171405D01*
X147350516Y-96178803D01*
X147350492Y-96178776D01*
X147347500Y-96181429D01*
X147344267Y-96184132D01*
X147338148Y-96188144D01*
X147314381Y-96213233D01*
X147284872Y-96244383D01*
X147282494Y-96246825D01*
X146766724Y-96762595D01*
X146704412Y-96796621D01*
X146677629Y-96799500D01*
X146220866Y-96799500D01*
X146158684Y-96806255D01*
X146022295Y-96857385D01*
X145905739Y-96944739D01*
X145818385Y-97061295D01*
X145815233Y-97069703D01*
X145786982Y-97145062D01*
X145744340Y-97201826D01*
X145677779Y-97226526D01*
X145608430Y-97211319D01*
X145558312Y-97161033D01*
X145551018Y-97145062D01*
X145522767Y-97069703D01*
X145519615Y-97061295D01*
X145502673Y-97038689D01*
X145477826Y-96972185D01*
X145477500Y-96963126D01*
X145477500Y-92510390D01*
X158190440Y-92510390D01*
X158196167Y-92518040D01*
X158394506Y-92639583D01*
X158403300Y-92644064D01*
X158627991Y-92737134D01*
X158637376Y-92740183D01*
X158873863Y-92796959D01*
X158883610Y-92798502D01*
X159126070Y-92817584D01*
X159135930Y-92817584D01*
X159378390Y-92798502D01*
X159388137Y-92796959D01*
X159624624Y-92740183D01*
X159634009Y-92737134D01*
X159858700Y-92644064D01*
X159867494Y-92639583D01*
X160062167Y-92520287D01*
X160071627Y-92509830D01*
X160067844Y-92501054D01*
X159143812Y-91577022D01*
X159129868Y-91569408D01*
X159128035Y-91569539D01*
X159121420Y-91573790D01*
X158197200Y-92498010D01*
X158190440Y-92510390D01*
X145477500Y-92510390D01*
X145477500Y-92089500D01*
X145497502Y-92021379D01*
X145551158Y-91974886D01*
X145603500Y-91963500D01*
X147674991Y-91963500D01*
X147743112Y-91983502D01*
X147789605Y-92037158D01*
X147792971Y-92045266D01*
X147793733Y-92047297D01*
X147796885Y-92055705D01*
X147802265Y-92062884D01*
X147802267Y-92062887D01*
X147861443Y-92141844D01*
X147884239Y-92172261D01*
X148000795Y-92259615D01*
X148137184Y-92310745D01*
X148199366Y-92317500D01*
X149996634Y-92317500D01*
X150058816Y-92310745D01*
X150195205Y-92259615D01*
X150311761Y-92172261D01*
X150399115Y-92055705D01*
X150450245Y-91919316D01*
X150457000Y-91857134D01*
X150457000Y-90552866D01*
X150450245Y-90490684D01*
X150399115Y-90354295D01*
X150398327Y-90353244D01*
X150383981Y-90287654D01*
X150408716Y-90221105D01*
X150465504Y-90178494D01*
X150509670Y-90170500D01*
X157654046Y-90170500D01*
X157722167Y-90190502D01*
X157768660Y-90244158D01*
X157778764Y-90314432D01*
X157761479Y-90362335D01*
X157696417Y-90468506D01*
X157691936Y-90477300D01*
X157598866Y-90701991D01*
X157595817Y-90711376D01*
X157539041Y-90947863D01*
X157537498Y-90957610D01*
X157518416Y-91200070D01*
X157518416Y-91209930D01*
X157537498Y-91452390D01*
X157539041Y-91462137D01*
X157595817Y-91698624D01*
X157598866Y-91708009D01*
X157691936Y-91932700D01*
X157696417Y-91941494D01*
X157815713Y-92136167D01*
X157826170Y-92145627D01*
X157834946Y-92141844D01*
X159041905Y-90934885D01*
X159104217Y-90900859D01*
X159175032Y-90905924D01*
X159220095Y-90934885D01*
X160424010Y-92138800D01*
X160436390Y-92145560D01*
X160444040Y-92139833D01*
X160565583Y-91941494D01*
X160570064Y-91932700D01*
X160663134Y-91708009D01*
X160666183Y-91698624D01*
X160722959Y-91462137D01*
X160724502Y-91452390D01*
X160743584Y-91209930D01*
X160743584Y-91200070D01*
X160724502Y-90957610D01*
X160722959Y-90947863D01*
X160666183Y-90711376D01*
X160663134Y-90701991D01*
X160570064Y-90477300D01*
X160565583Y-90468506D01*
X160500521Y-90362335D01*
X160481983Y-90293802D01*
X160503439Y-90226125D01*
X160558078Y-90180792D01*
X160607954Y-90170500D01*
X162733459Y-90170500D01*
X162801580Y-90190502D01*
X162848073Y-90244158D01*
X162858177Y-90314432D01*
X162840892Y-90362335D01*
X162802270Y-90425360D01*
X162773384Y-90472498D01*
X162771491Y-90477068D01*
X162771489Y-90477072D01*
X162707745Y-90630965D01*
X162676495Y-90706409D01*
X162617391Y-90952597D01*
X162597526Y-91205000D01*
X162617391Y-91457403D01*
X162676495Y-91703591D01*
X162678388Y-91708162D01*
X162678389Y-91708164D01*
X162768916Y-91926715D01*
X162773384Y-91937502D01*
X162905672Y-92153376D01*
X163070102Y-92345898D01*
X163262624Y-92510328D01*
X163478498Y-92642616D01*
X163483068Y-92644509D01*
X163483072Y-92644511D01*
X163707836Y-92737611D01*
X163712409Y-92739505D01*
X163797032Y-92759821D01*
X163953784Y-92797454D01*
X163953790Y-92797455D01*
X163958597Y-92798609D01*
X164211000Y-92818474D01*
X164463403Y-92798609D01*
X164468210Y-92797455D01*
X164468216Y-92797454D01*
X164624968Y-92759821D01*
X164709591Y-92739505D01*
X164714164Y-92737611D01*
X164938928Y-92644511D01*
X164938932Y-92644509D01*
X164943502Y-92642616D01*
X165159376Y-92510328D01*
X165351898Y-92345898D01*
X165516328Y-92153376D01*
X165518910Y-92149162D01*
X165518917Y-92149153D01*
X165607460Y-92004665D01*
X165660107Y-91957034D01*
X165714892Y-91944500D01*
X169559629Y-91944500D01*
X169627750Y-91964502D01*
X169648724Y-91981405D01*
X171377168Y-93709849D01*
X171411194Y-93772161D01*
X171413336Y-93812551D01*
X171409500Y-93847866D01*
X171409500Y-94441629D01*
X171389498Y-94509750D01*
X171372595Y-94530724D01*
X169598759Y-96304560D01*
X169536447Y-96338586D01*
X169465632Y-96333521D01*
X169420569Y-96304560D01*
X169414724Y-96298715D01*
X169312649Y-96222214D01*
X169297054Y-96213676D01*
X169176606Y-96168522D01*
X169161351Y-96164895D01*
X169110486Y-96159369D01*
X169103672Y-96159000D01*
X168831115Y-96159000D01*
X168815876Y-96163475D01*
X168814671Y-96164865D01*
X168813000Y-96172548D01*
X168813000Y-96982500D01*
X168792998Y-97050621D01*
X168739342Y-97097114D01*
X168687000Y-97108500D01*
X168010866Y-97108500D01*
X167948684Y-97115255D01*
X167812295Y-97166385D01*
X167780405Y-97190285D01*
X167773012Y-97195826D01*
X167706506Y-97220674D01*
X167697447Y-97221000D01*
X167569116Y-97221000D01*
X167553877Y-97225475D01*
X167552672Y-97226865D01*
X167551001Y-97234548D01*
X167551001Y-97311669D01*
X167551371Y-97318490D01*
X167556895Y-97369352D01*
X167560521Y-97384603D01*
X167565190Y-97397058D01*
X167570373Y-97467865D01*
X167565192Y-97485512D01*
X167557255Y-97506684D01*
X167550500Y-97568866D01*
X167550500Y-98265134D01*
X167557255Y-98327316D01*
X167564923Y-98347770D01*
X167570106Y-98418577D01*
X167564923Y-98436229D01*
X167557255Y-98456684D01*
X167550500Y-98518866D01*
X167550500Y-99215134D01*
X167557255Y-99277316D01*
X167608385Y-99413705D01*
X167695739Y-99530261D01*
X167812295Y-99617615D01*
X167948684Y-99668745D01*
X168010866Y-99675500D01*
X169107134Y-99675500D01*
X169169316Y-99668745D01*
X169305705Y-99617615D01*
X169422261Y-99530261D01*
X169509615Y-99413705D01*
X169560745Y-99277316D01*
X169567500Y-99215134D01*
X169567500Y-98533377D01*
X169587502Y-98465256D01*
X169601848Y-98446913D01*
X169601948Y-98446807D01*
X169604505Y-98444176D01*
X171194905Y-96853776D01*
X171257217Y-96819750D01*
X171328032Y-96824815D01*
X171384868Y-96867362D01*
X171409679Y-96933882D01*
X171410000Y-96942871D01*
X171410001Y-97410669D01*
X171410371Y-97417490D01*
X171415895Y-97468352D01*
X171419521Y-97483604D01*
X171464676Y-97604054D01*
X171473214Y-97619649D01*
X171549715Y-97721724D01*
X171562276Y-97734285D01*
X171664351Y-97810786D01*
X171679946Y-97819324D01*
X171800394Y-97864478D01*
X171815649Y-97868105D01*
X171866514Y-97873631D01*
X171873328Y-97874000D01*
X172320885Y-97874000D01*
X172336124Y-97869525D01*
X172337329Y-97868135D01*
X172339000Y-97860452D01*
X172339000Y-97855884D01*
X172847000Y-97855884D01*
X172851475Y-97871123D01*
X172852865Y-97872328D01*
X172860548Y-97873999D01*
X173312669Y-97873999D01*
X173319490Y-97873629D01*
X173370352Y-97868105D01*
X173385604Y-97864479D01*
X173506054Y-97819324D01*
X173521649Y-97810786D01*
X173623724Y-97734285D01*
X173636285Y-97721724D01*
X173712786Y-97619649D01*
X173721324Y-97604054D01*
X173766478Y-97483606D01*
X173770105Y-97468351D01*
X173775631Y-97417486D01*
X173776000Y-97410672D01*
X173776000Y-96933115D01*
X173771525Y-96917876D01*
X173770135Y-96916671D01*
X173762452Y-96915000D01*
X172865115Y-96915000D01*
X172849876Y-96919475D01*
X172848671Y-96920865D01*
X172847000Y-96928548D01*
X172847000Y-97855884D01*
X172339000Y-97855884D01*
X172339000Y-96533000D01*
X172359002Y-96464879D01*
X172412658Y-96418386D01*
X172465000Y-96407000D01*
X173757884Y-96407000D01*
X173773123Y-96402525D01*
X173774328Y-96401135D01*
X173775999Y-96393452D01*
X173775999Y-95911331D01*
X173775629Y-95904510D01*
X173770105Y-95853648D01*
X173766479Y-95838396D01*
X173721324Y-95717946D01*
X173708478Y-95694483D01*
X173711060Y-95693069D01*
X173691409Y-95640488D01*
X173706455Y-95571104D01*
X173710744Y-95564431D01*
X173713230Y-95559890D01*
X173718615Y-95552705D01*
X173769745Y-95416316D01*
X173776500Y-95354134D01*
X173776500Y-93847866D01*
X173769745Y-93785684D01*
X173718615Y-93649295D01*
X173631261Y-93532739D01*
X173514705Y-93445385D01*
X173378316Y-93394255D01*
X173316134Y-93387500D01*
X173254768Y-93387500D01*
X173186647Y-93367498D01*
X173168115Y-93352972D01*
X173122617Y-93309871D01*
X173120175Y-93307494D01*
X170509770Y-90697089D01*
X170497384Y-90682677D01*
X170488851Y-90671082D01*
X170488846Y-90671077D01*
X170484508Y-90665182D01*
X170478930Y-90660443D01*
X170478927Y-90660440D01*
X170444232Y-90630965D01*
X170436716Y-90624035D01*
X170431021Y-90618340D01*
X170424880Y-90613482D01*
X170408749Y-90600719D01*
X170405345Y-90597928D01*
X170355297Y-90555409D01*
X170355295Y-90555408D01*
X170349715Y-90550667D01*
X170343199Y-90547339D01*
X170338150Y-90543972D01*
X170333021Y-90540805D01*
X170327284Y-90536266D01*
X170261125Y-90505345D01*
X170257225Y-90503439D01*
X170232246Y-90490684D01*
X170192192Y-90470231D01*
X170185084Y-90468492D01*
X170179441Y-90466393D01*
X170173678Y-90464476D01*
X170167050Y-90461378D01*
X170095583Y-90446513D01*
X170091299Y-90445543D01*
X170020390Y-90428192D01*
X170014788Y-90427844D01*
X170014785Y-90427844D01*
X170009236Y-90427500D01*
X170009238Y-90427464D01*
X170005245Y-90427225D01*
X170001053Y-90426851D01*
X169993885Y-90425360D01*
X169927675Y-90427151D01*
X169916479Y-90427454D01*
X169913072Y-90427500D01*
X165691605Y-90427500D01*
X165623484Y-90407498D01*
X165584172Y-90367335D01*
X165581108Y-90362335D01*
X165562570Y-90293801D01*
X165584026Y-90226125D01*
X165638666Y-90180792D01*
X165688541Y-90170500D01*
X174460500Y-90170500D01*
X174528621Y-90190502D01*
X174575114Y-90244158D01*
X174586500Y-90296500D01*
X174586500Y-109027500D01*
X174566498Y-109095621D01*
X174512842Y-109142114D01*
X174460500Y-109153500D01*
X125729500Y-109153500D01*
X125661379Y-109133498D01*
X125614886Y-109079842D01*
X125603500Y-109027500D01*
X125603500Y-108480133D01*
X126622112Y-108480133D01*
X126630825Y-108491653D01*
X126728518Y-108563284D01*
X126736428Y-108568227D01*
X126959390Y-108685533D01*
X126967953Y-108689256D01*
X127205804Y-108772318D01*
X127214813Y-108774732D01*
X127462342Y-108821727D01*
X127471598Y-108822781D01*
X127723357Y-108832673D01*
X127732671Y-108832347D01*
X127983115Y-108804920D01*
X127992292Y-108803219D01*
X128235931Y-108739074D01*
X128244751Y-108736037D01*
X128476236Y-108636583D01*
X128484508Y-108632276D01*
X128698749Y-108499700D01*
X128705688Y-108494658D01*
X128714018Y-108482019D01*
X128712914Y-108480133D01*
X131722112Y-108480133D01*
X131730825Y-108491653D01*
X131828518Y-108563284D01*
X131836428Y-108568227D01*
X132059390Y-108685533D01*
X132067953Y-108689256D01*
X132305804Y-108772318D01*
X132314813Y-108774732D01*
X132562342Y-108821727D01*
X132571598Y-108822781D01*
X132823357Y-108832673D01*
X132832671Y-108832347D01*
X133083115Y-108804920D01*
X133092292Y-108803219D01*
X133335931Y-108739074D01*
X133344751Y-108736037D01*
X133576236Y-108636583D01*
X133584508Y-108632276D01*
X133798749Y-108499700D01*
X133805688Y-108494658D01*
X133814018Y-108482019D01*
X133812914Y-108480133D01*
X166417112Y-108480133D01*
X166425825Y-108491653D01*
X166523518Y-108563284D01*
X166531428Y-108568227D01*
X166754390Y-108685533D01*
X166762953Y-108689256D01*
X167000804Y-108772318D01*
X167009813Y-108774732D01*
X167257342Y-108821727D01*
X167266598Y-108822781D01*
X167518357Y-108832673D01*
X167527671Y-108832347D01*
X167778115Y-108804920D01*
X167787292Y-108803219D01*
X168030931Y-108739074D01*
X168039751Y-108736037D01*
X168271236Y-108636583D01*
X168279508Y-108632276D01*
X168493749Y-108499700D01*
X168500688Y-108494658D01*
X168509018Y-108482019D01*
X168507914Y-108480133D01*
X171517112Y-108480133D01*
X171525825Y-108491653D01*
X171623518Y-108563284D01*
X171631428Y-108568227D01*
X171854390Y-108685533D01*
X171862953Y-108689256D01*
X172100804Y-108772318D01*
X172109813Y-108774732D01*
X172357342Y-108821727D01*
X172366598Y-108822781D01*
X172618357Y-108832673D01*
X172627671Y-108832347D01*
X172878115Y-108804920D01*
X172887292Y-108803219D01*
X173130931Y-108739074D01*
X173139751Y-108736037D01*
X173371236Y-108636583D01*
X173379508Y-108632276D01*
X173593749Y-108499700D01*
X173600688Y-108494658D01*
X173609018Y-108482019D01*
X173602956Y-108471666D01*
X172574312Y-107443022D01*
X172560368Y-107435408D01*
X172558535Y-107435539D01*
X172551920Y-107439790D01*
X171523770Y-108467940D01*
X171517112Y-108480133D01*
X168507914Y-108480133D01*
X168502956Y-108471666D01*
X167474312Y-107443022D01*
X167460368Y-107435408D01*
X167458535Y-107435539D01*
X167451920Y-107439790D01*
X166423770Y-108467940D01*
X166417112Y-108480133D01*
X133812914Y-108480133D01*
X133807956Y-108471666D01*
X132779312Y-107443022D01*
X132765368Y-107435408D01*
X132763535Y-107435539D01*
X132756920Y-107439790D01*
X131728770Y-108467940D01*
X131722112Y-108480133D01*
X128712914Y-108480133D01*
X128707956Y-108471666D01*
X127679312Y-107443022D01*
X127665368Y-107435408D01*
X127663535Y-107435539D01*
X127656920Y-107439790D01*
X126628770Y-108467940D01*
X126622112Y-108480133D01*
X125603500Y-108480133D01*
X125603500Y-107029523D01*
X125904398Y-107029523D01*
X125916487Y-107281175D01*
X125917624Y-107290435D01*
X125966774Y-107537535D01*
X125969268Y-107546528D01*
X126054400Y-107783639D01*
X126058200Y-107792174D01*
X126177446Y-108014101D01*
X126182457Y-108021968D01*
X126245946Y-108106990D01*
X126257204Y-108115439D01*
X126269623Y-108108667D01*
X127294478Y-107083812D01*
X127300856Y-107072132D01*
X128030908Y-107072132D01*
X128031039Y-107073965D01*
X128035290Y-107080580D01*
X129066413Y-108111703D01*
X129078793Y-108118463D01*
X129087134Y-108112219D01*
X129213265Y-107916127D01*
X129217712Y-107907936D01*
X129321191Y-107678222D01*
X129324382Y-107669455D01*
X129392769Y-107426976D01*
X129394629Y-107417834D01*
X129426616Y-107166396D01*
X129427097Y-107160108D01*
X129429347Y-107074160D01*
X129429196Y-107067851D01*
X129410412Y-106815074D01*
X129409036Y-106805868D01*
X129353429Y-106560126D01*
X129350705Y-106551215D01*
X129259388Y-106316392D01*
X129255377Y-106307983D01*
X129130354Y-106089240D01*
X129125143Y-106081514D01*
X129087891Y-106034261D01*
X129075966Y-106025790D01*
X129064434Y-106032276D01*
X128038522Y-107058188D01*
X128030908Y-107072132D01*
X127300856Y-107072132D01*
X127302092Y-107069868D01*
X127301961Y-107068035D01*
X127297710Y-107061420D01*
X126267821Y-106031531D01*
X126254513Y-106024264D01*
X126244474Y-106031386D01*
X126234261Y-106043666D01*
X126228846Y-106051258D01*
X126098146Y-106266646D01*
X126093908Y-106274963D01*
X125996481Y-106507299D01*
X125993520Y-106516149D01*
X125931506Y-106760331D01*
X125929884Y-106769528D01*
X125904643Y-107020198D01*
X125904398Y-107029523D01*
X125603500Y-107029523D01*
X125603500Y-105659803D01*
X126619716Y-105659803D01*
X126624289Y-105669579D01*
X127653688Y-106698978D01*
X127667632Y-106706592D01*
X127669465Y-106706461D01*
X127676080Y-106702210D01*
X128704919Y-105673371D01*
X128711303Y-105661681D01*
X128701891Y-105649570D01*
X128565093Y-105554670D01*
X128557065Y-105549942D01*
X128331093Y-105438505D01*
X128322460Y-105435017D01*
X128082498Y-105358205D01*
X128073438Y-105356029D01*
X127824760Y-105315529D01*
X127815473Y-105314717D01*
X127563553Y-105311419D01*
X127554242Y-105311989D01*
X127304597Y-105345964D01*
X127295478Y-105347902D01*
X127053598Y-105418404D01*
X127044867Y-105421667D01*
X126816058Y-105527151D01*
X126807906Y-105531670D01*
X126628853Y-105649062D01*
X126619716Y-105659803D01*
X125603500Y-105659803D01*
X125603500Y-104521000D01*
X128703335Y-104521000D01*
X128721965Y-104757711D01*
X128777395Y-104988594D01*
X128868260Y-105207963D01*
X128870846Y-105212183D01*
X128989741Y-105406202D01*
X128989745Y-105406208D01*
X128992324Y-105410416D01*
X129146531Y-105590969D01*
X129327084Y-105745176D01*
X129331292Y-105747755D01*
X129331298Y-105747759D01*
X129503294Y-105853158D01*
X129529537Y-105869240D01*
X129534107Y-105871133D01*
X129534111Y-105871135D01*
X129744333Y-105958211D01*
X129748906Y-105960105D01*
X129829109Y-105979360D01*
X129974976Y-106014380D01*
X129974982Y-106014381D01*
X129979789Y-106015535D01*
X130216500Y-106034165D01*
X130453211Y-106015535D01*
X130458018Y-106014381D01*
X130458024Y-106014380D01*
X130603891Y-105979360D01*
X130684094Y-105960105D01*
X130688667Y-105958211D01*
X130898889Y-105871135D01*
X130898893Y-105871133D01*
X130903463Y-105869240D01*
X130907683Y-105866654D01*
X130907693Y-105866649D01*
X131019606Y-105798068D01*
X131085441Y-105779500D01*
X131285290Y-105779500D01*
X131353411Y-105799502D01*
X131399904Y-105853158D01*
X131410008Y-105923432D01*
X131382164Y-105986069D01*
X131334261Y-106043666D01*
X131328846Y-106051258D01*
X131198146Y-106266646D01*
X131193908Y-106274963D01*
X131096481Y-106507299D01*
X131093520Y-106516149D01*
X131031506Y-106760331D01*
X131029884Y-106769528D01*
X131004643Y-107020198D01*
X131004398Y-107029523D01*
X131016487Y-107281175D01*
X131017624Y-107290435D01*
X131066774Y-107537535D01*
X131069268Y-107546528D01*
X131154400Y-107783639D01*
X131158200Y-107792174D01*
X131277446Y-108014101D01*
X131282457Y-108021968D01*
X131345946Y-108106990D01*
X131357204Y-108115439D01*
X131369623Y-108108667D01*
X132677405Y-106800885D01*
X132739717Y-106766859D01*
X132810532Y-106771924D01*
X132855595Y-106800885D01*
X134166413Y-108111703D01*
X134178793Y-108118463D01*
X134187134Y-108112219D01*
X134313265Y-107916127D01*
X134317712Y-107907936D01*
X134421191Y-107678222D01*
X134424382Y-107669455D01*
X134492769Y-107426976D01*
X134494629Y-107417834D01*
X134526616Y-107166396D01*
X134527097Y-107160108D01*
X134529347Y-107074160D01*
X134529196Y-107067851D01*
X134510412Y-106815074D01*
X134509036Y-106805868D01*
X134453429Y-106560126D01*
X134450705Y-106551215D01*
X134359388Y-106316392D01*
X134355377Y-106307983D01*
X134230354Y-106089240D01*
X134225143Y-106081514D01*
X134147880Y-105983506D01*
X134121415Y-105917626D01*
X134134768Y-105847897D01*
X134183700Y-105796456D01*
X134246830Y-105779500D01*
X148773999Y-105779500D01*
X148776786Y-105779251D01*
X148776792Y-105779251D01*
X148846929Y-105772991D01*
X148940762Y-105764617D01*
X148946176Y-105763136D01*
X148946181Y-105763135D01*
X149144186Y-105708966D01*
X149177434Y-105704500D01*
X149818134Y-105704500D01*
X149880316Y-105697745D01*
X150016705Y-105646615D01*
X150023891Y-105641229D01*
X150031760Y-105636921D01*
X150033143Y-105639447D01*
X150085942Y-105619721D01*
X150155324Y-105634774D01*
X150161112Y-105638493D01*
X150166107Y-105641228D01*
X150173295Y-105646615D01*
X150309684Y-105697745D01*
X150371866Y-105704500D01*
X150802341Y-105704500D01*
X150849337Y-105713593D01*
X150891783Y-105730656D01*
X150897275Y-105731793D01*
X150897277Y-105731794D01*
X150974369Y-105747759D01*
X151111767Y-105776213D01*
X151116378Y-105776479D01*
X151116379Y-105776479D01*
X151166952Y-105779395D01*
X151166956Y-105779395D01*
X151168775Y-105779500D01*
X165980290Y-105779500D01*
X166048411Y-105799502D01*
X166094904Y-105853158D01*
X166105008Y-105923432D01*
X166077164Y-105986069D01*
X166029261Y-106043666D01*
X166023846Y-106051258D01*
X165893146Y-106266646D01*
X165888908Y-106274963D01*
X165791481Y-106507299D01*
X165788520Y-106516149D01*
X165726506Y-106760331D01*
X165724884Y-106769528D01*
X165699643Y-107020198D01*
X165699398Y-107029523D01*
X165711487Y-107281175D01*
X165712624Y-107290435D01*
X165761774Y-107537535D01*
X165764268Y-107546528D01*
X165849400Y-107783639D01*
X165853200Y-107792174D01*
X165972446Y-108014101D01*
X165977457Y-108021968D01*
X166040946Y-108106990D01*
X166052204Y-108115439D01*
X166064623Y-108108667D01*
X167372405Y-106800885D01*
X167434717Y-106766859D01*
X167505532Y-106771924D01*
X167550595Y-106800885D01*
X168861413Y-108111703D01*
X168873793Y-108118463D01*
X168882134Y-108112219D01*
X169008265Y-107916127D01*
X169012712Y-107907936D01*
X169116191Y-107678222D01*
X169119382Y-107669455D01*
X169187769Y-107426976D01*
X169189629Y-107417834D01*
X169221616Y-107166396D01*
X169222097Y-107160108D01*
X169224347Y-107074160D01*
X169224196Y-107067851D01*
X169221348Y-107029523D01*
X170799398Y-107029523D01*
X170811487Y-107281175D01*
X170812624Y-107290435D01*
X170861774Y-107537535D01*
X170864268Y-107546528D01*
X170949400Y-107783639D01*
X170953200Y-107792174D01*
X171072446Y-108014101D01*
X171077457Y-108021968D01*
X171140946Y-108106990D01*
X171152204Y-108115439D01*
X171164623Y-108108667D01*
X172189478Y-107083812D01*
X172195856Y-107072132D01*
X172925908Y-107072132D01*
X172926039Y-107073965D01*
X172930290Y-107080580D01*
X173961413Y-108111703D01*
X173973793Y-108118463D01*
X173982134Y-108112219D01*
X174108265Y-107916127D01*
X174112712Y-107907936D01*
X174216191Y-107678222D01*
X174219382Y-107669455D01*
X174287769Y-107426976D01*
X174289629Y-107417834D01*
X174321616Y-107166396D01*
X174322097Y-107160108D01*
X174324347Y-107074160D01*
X174324196Y-107067851D01*
X174305412Y-106815074D01*
X174304036Y-106805868D01*
X174248429Y-106560126D01*
X174245705Y-106551215D01*
X174154388Y-106316392D01*
X174150377Y-106307983D01*
X174025354Y-106089240D01*
X174020143Y-106081514D01*
X173982891Y-106034261D01*
X173970966Y-106025790D01*
X173959434Y-106032276D01*
X172933522Y-107058188D01*
X172925908Y-107072132D01*
X172195856Y-107072132D01*
X172197092Y-107069868D01*
X172196961Y-107068035D01*
X172192710Y-107061420D01*
X171162821Y-106031531D01*
X171149513Y-106024264D01*
X171139474Y-106031386D01*
X171129261Y-106043666D01*
X171123846Y-106051258D01*
X170993146Y-106266646D01*
X170988908Y-106274963D01*
X170891481Y-106507299D01*
X170888520Y-106516149D01*
X170826506Y-106760331D01*
X170824884Y-106769528D01*
X170799643Y-107020198D01*
X170799398Y-107029523D01*
X169221348Y-107029523D01*
X169205412Y-106815074D01*
X169204036Y-106805868D01*
X169148429Y-106560126D01*
X169145705Y-106551215D01*
X169054388Y-106316392D01*
X169050377Y-106307983D01*
X168925354Y-106089240D01*
X168920143Y-106081514D01*
X168842880Y-105983506D01*
X168816415Y-105917626D01*
X168829768Y-105847897D01*
X168878700Y-105796456D01*
X168941830Y-105779500D01*
X169142559Y-105779500D01*
X169208394Y-105798068D01*
X169320307Y-105866649D01*
X169320317Y-105866654D01*
X169324537Y-105869240D01*
X169329107Y-105871133D01*
X169329111Y-105871135D01*
X169539333Y-105958211D01*
X169543906Y-105960105D01*
X169624109Y-105979360D01*
X169769976Y-106014380D01*
X169769982Y-106014381D01*
X169774789Y-106015535D01*
X170011500Y-106034165D01*
X170248211Y-106015535D01*
X170253018Y-106014381D01*
X170253024Y-106014380D01*
X170398891Y-105979360D01*
X170479094Y-105960105D01*
X170483667Y-105958211D01*
X170693889Y-105871135D01*
X170693893Y-105871133D01*
X170698463Y-105869240D01*
X170724706Y-105853158D01*
X170896702Y-105747759D01*
X170896708Y-105747755D01*
X170900916Y-105745176D01*
X171000875Y-105659803D01*
X171514716Y-105659803D01*
X171519289Y-105669579D01*
X172548688Y-106698978D01*
X172562632Y-106706592D01*
X172564465Y-106706461D01*
X172571080Y-106702210D01*
X173599919Y-105673371D01*
X173606303Y-105661681D01*
X173596891Y-105649570D01*
X173460093Y-105554670D01*
X173452065Y-105549942D01*
X173226093Y-105438505D01*
X173217460Y-105435017D01*
X172977498Y-105358205D01*
X172968438Y-105356029D01*
X172719760Y-105315529D01*
X172710473Y-105314717D01*
X172458553Y-105311419D01*
X172449242Y-105311989D01*
X172199597Y-105345964D01*
X172190478Y-105347902D01*
X171948598Y-105418404D01*
X171939867Y-105421667D01*
X171711058Y-105527151D01*
X171702906Y-105531670D01*
X171523853Y-105649062D01*
X171514716Y-105659803D01*
X171000875Y-105659803D01*
X171081469Y-105590969D01*
X171235676Y-105410416D01*
X171238255Y-105406208D01*
X171238259Y-105406202D01*
X171357154Y-105212183D01*
X171359740Y-105207963D01*
X171450605Y-104988594D01*
X171506035Y-104757711D01*
X171524665Y-104521000D01*
X171506035Y-104284289D01*
X171450605Y-104053406D01*
X171359740Y-103834037D01*
X171280617Y-103704920D01*
X171238259Y-103635798D01*
X171238255Y-103635792D01*
X171235676Y-103631584D01*
X171081469Y-103451031D01*
X170998458Y-103380133D01*
X171517112Y-103380133D01*
X171525825Y-103391653D01*
X171623518Y-103463284D01*
X171631428Y-103468227D01*
X171854390Y-103585533D01*
X171862953Y-103589256D01*
X172100804Y-103672318D01*
X172109813Y-103674732D01*
X172357342Y-103721727D01*
X172366598Y-103722781D01*
X172618357Y-103732673D01*
X172627671Y-103732347D01*
X172878115Y-103704920D01*
X172887292Y-103703219D01*
X173130931Y-103639074D01*
X173139751Y-103636037D01*
X173371236Y-103536583D01*
X173379508Y-103532276D01*
X173593749Y-103399700D01*
X173600688Y-103394658D01*
X173609018Y-103382019D01*
X173602956Y-103371666D01*
X172574312Y-102343022D01*
X172560368Y-102335408D01*
X172558535Y-102335539D01*
X172551920Y-102339790D01*
X171523770Y-103367940D01*
X171517112Y-103380133D01*
X170998458Y-103380133D01*
X170900916Y-103296824D01*
X170896708Y-103294245D01*
X170896702Y-103294241D01*
X170702683Y-103175346D01*
X170698463Y-103172760D01*
X170693893Y-103170867D01*
X170693889Y-103170865D01*
X170483667Y-103083789D01*
X170483665Y-103083788D01*
X170479094Y-103081895D01*
X170392522Y-103061111D01*
X170253024Y-103027620D01*
X170253018Y-103027619D01*
X170248211Y-103026465D01*
X170011500Y-103007835D01*
X169774789Y-103026465D01*
X169769982Y-103027619D01*
X169769976Y-103027620D01*
X169630478Y-103061111D01*
X169543906Y-103081895D01*
X169539335Y-103083788D01*
X169539333Y-103083789D01*
X169329111Y-103170865D01*
X169329107Y-103170867D01*
X169324537Y-103172760D01*
X169320318Y-103175345D01*
X169320307Y-103175351D01*
X169208394Y-103243932D01*
X169142559Y-103262500D01*
X168945346Y-103262500D01*
X168877225Y-103242498D01*
X168830732Y-103188842D01*
X168820628Y-103118568D01*
X168850614Y-103053423D01*
X168866357Y-103035472D01*
X168871965Y-103028030D01*
X169008265Y-102816127D01*
X169012712Y-102807936D01*
X169116191Y-102578222D01*
X169119382Y-102569455D01*
X169187769Y-102326976D01*
X169189629Y-102317834D01*
X169221616Y-102066396D01*
X169222097Y-102060108D01*
X169224347Y-101974160D01*
X169224196Y-101967851D01*
X169221348Y-101929523D01*
X170799398Y-101929523D01*
X170811487Y-102181175D01*
X170812624Y-102190435D01*
X170861774Y-102437535D01*
X170864268Y-102446528D01*
X170949400Y-102683639D01*
X170953200Y-102692174D01*
X171072446Y-102914101D01*
X171077457Y-102921968D01*
X171140946Y-103006990D01*
X171152204Y-103015439D01*
X171164623Y-103008667D01*
X172189478Y-101983812D01*
X172195856Y-101972132D01*
X172925908Y-101972132D01*
X172926039Y-101973965D01*
X172930290Y-101980580D01*
X173961413Y-103011703D01*
X173973793Y-103018463D01*
X173982134Y-103012219D01*
X174108265Y-102816127D01*
X174112712Y-102807936D01*
X174216191Y-102578222D01*
X174219382Y-102569455D01*
X174287769Y-102326976D01*
X174289629Y-102317834D01*
X174321616Y-102066396D01*
X174322097Y-102060108D01*
X174324347Y-101974160D01*
X174324196Y-101967851D01*
X174305412Y-101715074D01*
X174304036Y-101705868D01*
X174248429Y-101460126D01*
X174245705Y-101451215D01*
X174154388Y-101216392D01*
X174150377Y-101207983D01*
X174025354Y-100989240D01*
X174020143Y-100981514D01*
X173982891Y-100934261D01*
X173970966Y-100925790D01*
X173959434Y-100932276D01*
X172933522Y-101958188D01*
X172925908Y-101972132D01*
X172195856Y-101972132D01*
X172197092Y-101969868D01*
X172196961Y-101968035D01*
X172192710Y-101961420D01*
X171162821Y-100931531D01*
X171149513Y-100924264D01*
X171139474Y-100931386D01*
X171129261Y-100943666D01*
X171123846Y-100951258D01*
X170993146Y-101166646D01*
X170988908Y-101174963D01*
X170891481Y-101407299D01*
X170888520Y-101416149D01*
X170826506Y-101660331D01*
X170824884Y-101669528D01*
X170799643Y-101920198D01*
X170799398Y-101929523D01*
X169221348Y-101929523D01*
X169205412Y-101715074D01*
X169204036Y-101705868D01*
X169148429Y-101460126D01*
X169145705Y-101451215D01*
X169054388Y-101216392D01*
X169050377Y-101207983D01*
X168925354Y-100989240D01*
X168920143Y-100981514D01*
X168882891Y-100934261D01*
X168870966Y-100925790D01*
X168859434Y-100932276D01*
X167550595Y-102241115D01*
X167488283Y-102275141D01*
X167417468Y-102270076D01*
X167372405Y-102241115D01*
X166062821Y-100931531D01*
X166049513Y-100924264D01*
X166039474Y-100931386D01*
X166029261Y-100943666D01*
X166023846Y-100951258D01*
X165893146Y-101166646D01*
X165888908Y-101174963D01*
X165791481Y-101407299D01*
X165788520Y-101416149D01*
X165726506Y-101660331D01*
X165724884Y-101669528D01*
X165699643Y-101920198D01*
X165699398Y-101929523D01*
X165711487Y-102181175D01*
X165712624Y-102190435D01*
X165761774Y-102437535D01*
X165764268Y-102446528D01*
X165849400Y-102683639D01*
X165853200Y-102692174D01*
X165972446Y-102914101D01*
X165977457Y-102921968D01*
X166081361Y-103061111D01*
X166106093Y-103127660D01*
X166090919Y-103197017D01*
X166040657Y-103247159D01*
X165980403Y-103262500D01*
X151200001Y-103262500D01*
X151197214Y-103262749D01*
X151197208Y-103262749D01*
X151127071Y-103269009D01*
X151033238Y-103277383D01*
X151027824Y-103278864D01*
X151027819Y-103278865D01*
X150829814Y-103333034D01*
X150796566Y-103337500D01*
X150371866Y-103337500D01*
X150309684Y-103344255D01*
X150173295Y-103395385D01*
X150166109Y-103400771D01*
X150158240Y-103405079D01*
X150156857Y-103402553D01*
X150104058Y-103422279D01*
X150034676Y-103407226D01*
X150028888Y-103403507D01*
X150023893Y-103400772D01*
X150016705Y-103395385D01*
X149880316Y-103344255D01*
X149818134Y-103337500D01*
X149171659Y-103337500D01*
X149124662Y-103328407D01*
X149087423Y-103313437D01*
X149082217Y-103311344D01*
X149076725Y-103310207D01*
X149076723Y-103310206D01*
X148935511Y-103280962D01*
X148862233Y-103265787D01*
X148857622Y-103265521D01*
X148857621Y-103265521D01*
X148807048Y-103262605D01*
X148807044Y-103262605D01*
X148805225Y-103262500D01*
X134250346Y-103262500D01*
X134182225Y-103242498D01*
X134135732Y-103188842D01*
X134125628Y-103118568D01*
X134155614Y-103053423D01*
X134171357Y-103035472D01*
X134176965Y-103028030D01*
X134313265Y-102816127D01*
X134317712Y-102807936D01*
X134421191Y-102578222D01*
X134424382Y-102569455D01*
X134492769Y-102326976D01*
X134494629Y-102317834D01*
X134526616Y-102066396D01*
X134527097Y-102060108D01*
X134529347Y-101974160D01*
X134529196Y-101967851D01*
X134510412Y-101715074D01*
X134509036Y-101705868D01*
X134453429Y-101460126D01*
X134450705Y-101451215D01*
X134359388Y-101216392D01*
X134355377Y-101207983D01*
X134230354Y-100989240D01*
X134225143Y-100981514D01*
X134187891Y-100934261D01*
X134175966Y-100925790D01*
X134164434Y-100932276D01*
X132855595Y-102241115D01*
X132793283Y-102275141D01*
X132722468Y-102270076D01*
X132677405Y-102241115D01*
X131367821Y-100931531D01*
X131354513Y-100924264D01*
X131344474Y-100931386D01*
X131334261Y-100943666D01*
X131328846Y-100951258D01*
X131198146Y-101166646D01*
X131193908Y-101174963D01*
X131096481Y-101407299D01*
X131093520Y-101416149D01*
X131031506Y-101660331D01*
X131029884Y-101669528D01*
X131004643Y-101920198D01*
X131004398Y-101929523D01*
X131016487Y-102181175D01*
X131017624Y-102190435D01*
X131066774Y-102437535D01*
X131069268Y-102446528D01*
X131154400Y-102683639D01*
X131158200Y-102692174D01*
X131277446Y-102914101D01*
X131282457Y-102921968D01*
X131386361Y-103061111D01*
X131411093Y-103127660D01*
X131395919Y-103197017D01*
X131345657Y-103247159D01*
X131285403Y-103262500D01*
X131085441Y-103262500D01*
X131019606Y-103243932D01*
X130907693Y-103175351D01*
X130907682Y-103175345D01*
X130903463Y-103172760D01*
X130898893Y-103170867D01*
X130898889Y-103170865D01*
X130688667Y-103083789D01*
X130688665Y-103083788D01*
X130684094Y-103081895D01*
X130597522Y-103061111D01*
X130458024Y-103027620D01*
X130458018Y-103027619D01*
X130453211Y-103026465D01*
X130216500Y-103007835D01*
X129979789Y-103026465D01*
X129974982Y-103027619D01*
X129974976Y-103027620D01*
X129835478Y-103061111D01*
X129748906Y-103081895D01*
X129744335Y-103083788D01*
X129744333Y-103083789D01*
X129534111Y-103170865D01*
X129534107Y-103170867D01*
X129529537Y-103172760D01*
X129525317Y-103175346D01*
X129331298Y-103294241D01*
X129331292Y-103294245D01*
X129327084Y-103296824D01*
X129146531Y-103451031D01*
X128992324Y-103631584D01*
X128989745Y-103635792D01*
X128989741Y-103635798D01*
X128947383Y-103704920D01*
X128868260Y-103834037D01*
X128777395Y-104053406D01*
X128721965Y-104284289D01*
X128703335Y-104521000D01*
X125603500Y-104521000D01*
X125603500Y-103380133D01*
X126622112Y-103380133D01*
X126630825Y-103391653D01*
X126728518Y-103463284D01*
X126736428Y-103468227D01*
X126959390Y-103585533D01*
X126967953Y-103589256D01*
X127205804Y-103672318D01*
X127214813Y-103674732D01*
X127462342Y-103721727D01*
X127471598Y-103722781D01*
X127723357Y-103732673D01*
X127732671Y-103732347D01*
X127983115Y-103704920D01*
X127992292Y-103703219D01*
X128235931Y-103639074D01*
X128244751Y-103636037D01*
X128476236Y-103536583D01*
X128484508Y-103532276D01*
X128698749Y-103399700D01*
X128705688Y-103394658D01*
X128714018Y-103382019D01*
X128707956Y-103371666D01*
X127679312Y-102343022D01*
X127665368Y-102335408D01*
X127663535Y-102335539D01*
X127656920Y-102339790D01*
X126628770Y-103367940D01*
X126622112Y-103380133D01*
X125603500Y-103380133D01*
X125603500Y-101929523D01*
X125904398Y-101929523D01*
X125916487Y-102181175D01*
X125917624Y-102190435D01*
X125966774Y-102437535D01*
X125969268Y-102446528D01*
X126054400Y-102683639D01*
X126058200Y-102692174D01*
X126177446Y-102914101D01*
X126182457Y-102921968D01*
X126245946Y-103006990D01*
X126257204Y-103015439D01*
X126269623Y-103008667D01*
X127294478Y-101983812D01*
X127300856Y-101972132D01*
X128030908Y-101972132D01*
X128031039Y-101973965D01*
X128035290Y-101980580D01*
X129066413Y-103011703D01*
X129078793Y-103018463D01*
X129087134Y-103012219D01*
X129213265Y-102816127D01*
X129217712Y-102807936D01*
X129321191Y-102578222D01*
X129324382Y-102569455D01*
X129392769Y-102326976D01*
X129394629Y-102317834D01*
X129426616Y-102066396D01*
X129427097Y-102060108D01*
X129429347Y-101974160D01*
X129429196Y-101967851D01*
X129410412Y-101715074D01*
X129409036Y-101705868D01*
X129353429Y-101460126D01*
X129350705Y-101451215D01*
X129259388Y-101216392D01*
X129255377Y-101207983D01*
X129130354Y-100989240D01*
X129125143Y-100981514D01*
X129087891Y-100934261D01*
X129075966Y-100925790D01*
X129064434Y-100932276D01*
X128038522Y-101958188D01*
X128030908Y-101972132D01*
X127300856Y-101972132D01*
X127302092Y-101969868D01*
X127301961Y-101968035D01*
X127297710Y-101961420D01*
X126267821Y-100931531D01*
X126254513Y-100924264D01*
X126244474Y-100931386D01*
X126234261Y-100943666D01*
X126228846Y-100951258D01*
X126098146Y-101166646D01*
X126093908Y-101174963D01*
X125996481Y-101407299D01*
X125993520Y-101416149D01*
X125931506Y-101660331D01*
X125929884Y-101669528D01*
X125904643Y-101920198D01*
X125904398Y-101929523D01*
X125603500Y-101929523D01*
X125603500Y-100559803D01*
X126619716Y-100559803D01*
X126624289Y-100569579D01*
X127653688Y-101598978D01*
X127667632Y-101606592D01*
X127669465Y-101606461D01*
X127676080Y-101602210D01*
X128704919Y-100573371D01*
X128711303Y-100561681D01*
X128709844Y-100559803D01*
X131719716Y-100559803D01*
X131724289Y-100569579D01*
X132753688Y-101598978D01*
X132767632Y-101606592D01*
X132769465Y-101606461D01*
X132776080Y-101602210D01*
X133804919Y-100573371D01*
X133811303Y-100561681D01*
X133801891Y-100549570D01*
X133665093Y-100454670D01*
X133657065Y-100449942D01*
X133431093Y-100338505D01*
X133422460Y-100335017D01*
X133182498Y-100258205D01*
X133173438Y-100256029D01*
X132924760Y-100215529D01*
X132915473Y-100214717D01*
X132663553Y-100211419D01*
X132654242Y-100211989D01*
X132404597Y-100245964D01*
X132395478Y-100247902D01*
X132153598Y-100318404D01*
X132144867Y-100321667D01*
X131916058Y-100427151D01*
X131907906Y-100431670D01*
X131728853Y-100549062D01*
X131719716Y-100559803D01*
X128709844Y-100559803D01*
X128701891Y-100549570D01*
X128565093Y-100454670D01*
X128557065Y-100449942D01*
X128331093Y-100338505D01*
X128322460Y-100335017D01*
X128082498Y-100258205D01*
X128073438Y-100256029D01*
X127824760Y-100215529D01*
X127815473Y-100214717D01*
X127563553Y-100211419D01*
X127554242Y-100211989D01*
X127304597Y-100245964D01*
X127295478Y-100247902D01*
X127053598Y-100318404D01*
X127044867Y-100321667D01*
X126816058Y-100427151D01*
X126807906Y-100431670D01*
X126628853Y-100549062D01*
X126619716Y-100559803D01*
X125603500Y-100559803D01*
X125603500Y-92510390D01*
X134949440Y-92510390D01*
X134955167Y-92518040D01*
X135153506Y-92639583D01*
X135162300Y-92644064D01*
X135386991Y-92737134D01*
X135396376Y-92740183D01*
X135632863Y-92796959D01*
X135642610Y-92798502D01*
X135885070Y-92817584D01*
X135894930Y-92817584D01*
X136137390Y-92798502D01*
X136147137Y-92796959D01*
X136383624Y-92740183D01*
X136393009Y-92737134D01*
X136617700Y-92644064D01*
X136626494Y-92639583D01*
X136821167Y-92520287D01*
X136830627Y-92509830D01*
X136826844Y-92501054D01*
X135902812Y-91577022D01*
X135888868Y-91569408D01*
X135887035Y-91569539D01*
X135880420Y-91573790D01*
X134956200Y-92498010D01*
X134949440Y-92510390D01*
X125603500Y-92510390D01*
X125603500Y-90296500D01*
X125623502Y-90228379D01*
X125677158Y-90181886D01*
X125729500Y-90170500D01*
X134413046Y-90170500D01*
X134481167Y-90190502D01*
G37*
G04 #@! TD.AperFunction*
M02*
